<svg width="24" height="24" viewBox="0 0 24 24" fill="none" xmlns="http://www.w3.org/2000/svg">
<path fill-rule="evenodd" clip-rule="evenodd" d="M6.37414 17.6285C5.99923 17.2536 5.99923 16.6458 6.37414 16.2709L16.2736 6.37139C16.6485 5.99649 17.2564 5.99648 17.6313 6.37139C18.0062 6.74629 18.0062 7.35413 17.6313 7.72903L7.73178 17.6285C7.35688 18.0034 6.74904 18.0034 6.37414 17.6285Z" fill="white"/>
<path fill-rule="evenodd" clip-rule="evenodd" d="M6.09296 7.05029C6.09296 6.5201 6.52276 6.09029 7.05296 6.09029L16.9525 6.09029C17.4826 6.09029 17.9125 6.5201 17.9125 7.05029L17.9125 16.9498C17.9125 17.48 17.4826 17.9098 16.9525 17.9098C16.4223 17.9098 15.9925 17.48 15.9925 16.9498L15.9925 8.01029L7.05296 8.01029C6.52276 8.01029 6.09296 7.58049 6.09296 7.05029Z" fill="white"/>
</svg>
