<?xml version="1.0" encoding="UTF-8"?>
<svg width="69px" height="32px" viewBox="0 0 69 32" version="1.1" xmlns="http://www.w3.org/2000/svg" xmlns:xlink="http://www.w3.org/1999/xlink">
    <title>639c948ec23fba25dd573f6e_store-icons</title>
    <g id="Page-1" stroke="none" stroke-width="1" fill="none" fill-rule="evenodd">
        <g id="639c948ec23fba25dd573f6e_store-icons" fill="#2979FF" fill-rule="nonzero">
            <path d="M41.4024163,3.39987484 L56.217,18.106 L42.22,32.001 L42.1588319,31.997143 C41.5618579,31.9263318 41,31.3380538 41,30.6408354 L41,4.36344928 C41,3.99011603 41.161095,3.648018 41.4024163,3.39987484 Z M56.826,18.71 L60.666,22.522 L44.1,31.343 L56.826,18.71 Z M62.251,13.325 L68.2328767,16.5105429 C68.7442922,16.7584427 69,17.1302925 69,17.5021423 C69,17.8739921 68.7442922,18.2458419 68.2328767,18.4937418 L61.458,22.1 L57.435,18.106 L62.251,13.325 Z M42.2785388,3 C42.9178082,3 43.173516,3.12394993 43.5570776,3.3718498 L61.458,12.903 L56.826,17.502 L42.2206227,3.00168298 C42.2399163,3.00056555 42.2592275,3 42.2785388,3 Z" id="google"></path>
            <path d="M13.7157011,9.2219096 C15.0198019,9.2219096 17.5007953,7.48628611 20.0599545,7.74530193 C22.4924269,7.81868684 24.7466045,8.99375755 26.1424765,10.9160341 C23.9398154,12.2217909 22.5843926,14.5245467 22.5510825,17.0175275 C22.5542269,19.8380378 24.3059616,22.3834449 27,23.4821516 C26.4818766,25.1051165 25.7008768,26.6388789 24.6859302,28.0266257 C23.3228964,29.9926831 21.8937667,31.9134501 19.6254778,31.9489535 C17.4214559,31.9980057 16.6807469,30.6982536 14.1527991,30.6982536 C11.6011684,30.6982536 10.8116762,31.9134648 8.6977988,31.9980057 C6.53760706,32.075155 4.88668994,29.899619 3.4740957,27.952004 C0.65072079,23.9746137 -1.54778424,16.7430819 1.39962891,11.8225454 C2.78368958,9.42434264 5.37153675,7.90253717 8.2163524,7.81391335 C10.3784948,7.77101835 12.3863629,9.2219096 13.7157011,9.2219096 Z M20.0866093,2.7000624e-13 C20.2341551,1.85780215 19.6248478,3.6978923 18.3880824,5.12950077 C17.1881867,6.5685378 15.3700881,7.39742009 13.4552497,7.37840938 C13.3334741,5.57409024 13.9605143,3.79709468 15.1982621,2.43881338 C16.4517359,1.06213191 18.1971069,0.1913603 20.0866093,2.7000624e-13 Z" id="apple"></path>
        </g>
    </g>
</svg>