<svg width="21" height="20" viewBox="0 0 21 20" fill="none" xmlns="http://www.w3.org/2000/svg">
<path d="M17.7853 17.2633L12.9291 12.4072M14.5479 8.36036C14.5479 9.10436 14.4013 9.84109 14.1166 10.5285C13.8319 11.2158 13.4146 11.8404 12.8885 12.3665C12.3624 12.8926 11.7378 13.3099 11.0504 13.5946C10.3631 13.8793 9.62634 14.0259 8.88233 14.0259C8.13832 14.0259 7.4016 13.8793 6.71422 13.5946C6.02685 13.3099 5.40229 12.8926 4.87619 12.3665C4.3501 11.8404 3.93278 11.2158 3.64806 10.5285C3.36334 9.84109 3.2168 9.10436 3.2168 8.36036C3.2168 6.85776 3.8137 5.41671 4.87619 4.35422C5.93869 3.29173 7.37974 2.69482 8.88233 2.69482C10.3849 2.69482 11.826 3.29173 12.8885 4.35422C13.951 5.41671 14.5479 6.85776 14.5479 8.36036Z" stroke="white" stroke-width="1.61872" stroke-linecap="round" stroke-linejoin="round"/>
</svg>
