<svg id="Warstwa_1" enable-background="new 0 0 283.46 283.46" height="283.46" viewBox="0 0 283.46 283.46" width="283.46" xmlns="http://www.w3.org/2000/svg" xmlns:xlink="http://www.w3.org/1999/xlink"><clipPath id="SVGID_2_"><path id="SVGID_1_" d="m141.744 6.231c74.836 0 135.503 60.667 135.503 135.51 0 74.836-60.667 135.503-135.503 135.503-74.837 0-135.504-60.667-135.504-135.503 0-74.842 60.667-135.51 135.504-135.51z"/></clipPath><g><path d="m141.732 2.835c76.715 0 138.9 62.191 138.9 138.906 0 76.704-62.185 138.888-138.9 138.888-76.71 0-138.9-62.185-138.9-138.888 0-76.715 62.19-138.906 138.9-138.906z" fill="#d6d4d1"/><g><g><g clip-path="url(#SVGID_2_)"><g><path d="m-61.36 6.243h135.492v271.001h-135.492z" fill="#009245"/><path d="m74.132 6.243h135.515v271.001h-135.515z" fill="#fff"/><path d="m209.624 6.243h135.528v271.001h-135.528z" fill="#ce2b37"/></g></g></g></g></g></svg>