<svg width="16" height="16" viewBox="0 0 16 16" fill="none" xmlns="http://www.w3.org/2000/svg">
<path fill-rule="evenodd" clip-rule="evenodd" d="M8 0C12.4183 0 16 3.58172 16 8C16 12.4183 12.4183 16 8 16C3.58172 16 0 12.4183 0 8C0 3.58172 3.58172 0 8 0ZM7.25 8.75L4.52444 8.75113C4.70821 11.5555 5.90299 13.7269 7.25059 14.3313L7.25 8.75ZM11.4756 8.75113L8.75 8.75L8.75041 14.3309C10.0976 13.7259 11.2918 11.5548 11.4756 8.75113ZM3.02171 8.75045L1.54285 8.75043C1.75998 10.6392 2.7867 12.2816 4.26721 13.322C3.57654 12.0835 3.12336 10.4986 3.02171 8.75045ZM14.4571 8.75043L12.9783 8.75045C12.8766 10.4986 12.4235 12.0835 11.733 13.3224C13.2133 12.2816 14.24 10.6392 14.4571 8.75043ZM4.26705 2.67761L4.23169 2.70316C2.77003 3.74489 1.75787 5.37654 1.54274 7.25058L3.02165 7.25055C3.12318 5.50204 3.57641 3.91678 4.26705 2.67761ZM4.52438 7.24987L7.25 7.25L7.25059 1.66865C5.90283 2.27313 4.70793 4.44506 4.52438 7.24987ZM8.75041 1.6691L8.75 7.25L11.4756 7.24987C11.2921 4.44575 10.0978 2.2742 8.75041 1.6691ZM11.7328 2.67802L11.8123 2.82352C12.4583 4.04014 12.8808 5.56993 12.9783 7.25055L14.4573 7.25058C14.2404 5.36139 13.2136 3.71854 11.7328 2.67802Z" fill="white"/>
</svg>
