<?xml version="1.0" encoding="UTF-8"?>
<svg width="32px" height="32px" viewBox="0 0 32 32" version="1.1" xmlns="http://www.w3.org/2000/svg" xmlns:xlink="http://www.w3.org/1999/xlink">
    <title>logo/colored/32x32/uniswap</title>
    <g id="logo/colored/32x32/uniswap" stroke="none" stroke-width="1" fill="none" fill-rule="evenodd">
        <path d="M15.9721649,21.8525773 C16.8463918,22.0835052 17.6381443,22.5783505 18.0505155,23.1886598 C18.4463918,23.7824742 18.6278351,24.2938144 18.8092784,25.4319588 L18.899785,26.0022415 L18.899785,26.0022415 L18.9742268,26.4381443 L18.9742268,26.4381443 C19.1061856,27.0319588 19.3701031,27.4938144 19.7,27.7412371 C20.1748159,28.0935199 20.9767515,28.1329055 21.7888461,27.8726008 L22.1721649,27.7412371 C22.2237113,27.7247423 22.256701,27.7164948 22.256701,27.7247423 C22.2686973,27.7367385 22.2174406,27.783633 22.1330702,27.8455971 L21.985447,27.9473669 C21.9579597,27.9653861 21.9293447,27.9837275 21.9000728,28.0020812 L21.7203273,28.109874 C21.6602965,28.1442021 21.6014058,28.1761012 21.5474227,28.2030928 C21.1350515,28.4175258 20.8051546,28.4835052 20.3597938,28.4835052 C19.5680412,28.4835052 18.8917526,28.071134 18.3474227,27.2463918 C18.3089347,27.1914089 18.2576174,27.1016037 18.1989691,26.9898053 L18.0735268,26.7406856 L18.0735268,26.7406856 L17.9383098,26.4557253 L17.9383098,26.4557253 L17.609902,25.7236016 C17.1506617,24.7278172 16.8493026,24.3733778 16.2525773,23.9804124 C15.6587629,23.6010309 14.9,23.5185567 14.3226804,23.7989691 C13.5639175,24.1618557 13.3659794,25.1350515 13.8938144,25.728866 C14.1082474,25.9762887 14.5041237,26.1742268 14.8340206,26.2237113 C15.4443299,26.3061856 15.9721649,25.8278351 15.9721649,25.2175258 C15.9721649,24.8216495 15.8237113,24.5907216 15.4278351,24.4092784 C14.9,24.1783505 14.3226804,24.442268 14.3391753,24.9536082 C14.3391753,25.137408 14.4118872,25.2606143 14.5676986,25.3543897 L14.7521235,25.451339 C14.7592408,25.4566289 14.7567401,25.458264 14.7453909,25.4573983 L14.685567,25.4484536 L14.685567,25.4484536 C14.2072165,25.3494845 14.0917526,24.7556701 14.471134,24.3762887 C14.9329897,23.914433 15.9061856,24.1123711 16.2360825,24.7556701 C16.3680412,25.0195876 16.3845361,25.5474227 16.2690722,25.8773196 C15.9886598,26.6030928 15.1969072,26.9824742 14.3886598,26.7680412 C13.928073,26.6424266 13.6918746,26.5168121 13.2303793,26.0714212 L12.9536082,25.7948454 C11.856701,24.6665979 11.3999175,24.4017732 9.94275464,24.1659773 L9.39072165,24.0793814 L9.7371134,23.7494845 C10.957732,22.7268041 12.4587629,22.0010309 13.8443299,21.7701031 C14.4381443,21.671134 15.4278351,21.7041237 15.9721649,21.8525773 Z M21.8278351,15.8649485 C21.8476289,15.8649485 21.8911753,15.8827629 21.9442227,15.911266 L22.32024,16.1406693 L22.32024,16.1406693 L23.1959488,16.6307788 L23.1959488,16.6307788 L23.7247423,16.9206186 C25.0608247,17.6463918 25.8195876,18.2072165 26.3474227,18.8505155 C26.8092784,19.4113402 27.0896907,20.0546392 27.2216495,20.8463918 C27.3041237,21.2917526 27.2546392,22.3639175 27.1391753,22.8092784 C26.7762887,24.2113402 25.9515464,25.3329897 24.7474227,25.9762887 L24.5806415,26.0630393 L24.5806415,26.0630393 L24.4578465,26.1204658 L24.4578465,26.1204658 L24.4010309,26.1412371 L24.4010309,26.1412371 C24.3963181,26.1412371 24.3983379,26.1277719 24.4059361,26.1039193 L24.4738872,25.9368549 L24.4738872,25.9368549 L24.5494845,25.7783505 L24.5494845,25.7783505 C24.9453608,24.9371134 24.9948454,24.128866 24.6979381,23.2216495 C24.6201767,22.981296 24.5060593,22.7197349 24.3413032,22.4096991 L24.1591386,22.0824953 L24.1591386,22.0824953 L23.9400409,21.7169156 L23.9400409,21.7169156 L23.6808362,21.3069009 L23.6808362,21.3069009 L23.3783505,20.8463918 L23.3783505,20.8463918 L22.6757923,19.8102711 L22.6757923,19.8102711 L22.4484536,19.4587629 L22.4484536,19.4587629 L22.2774723,19.1773578 L22.2774723,19.1773578 L22.1431462,18.935357 L22.1431462,18.935357 L22.0257732,18.7020619 L22.0257732,18.7020619 C21.5969072,17.7618557 21.4979381,16.871134 21.728866,16.0298969 L21.7684536,15.9362062 C21.7882474,15.8946392 21.8080412,15.8649485 21.8278351,15.8649485 Z M6.13308811,3.67512946 L6.21408206,3.73996895 L6.21408206,3.73996895 L7.15171878,4.57596946 L7.15171878,4.57596946 L8.92218904,6.19284113 L8.92218904,6.19284113 L10.6062014,7.76257851 L10.6062014,7.76257851 L11.3805321,8.50448427 L11.3805321,8.50448427 L11.741689,8.86199667 L11.741689,8.86199667 L12.0018918,9.13291757 L12.0018918,9.13291757 L12.0628866,9.20103093 L12.2773196,9.43195876 L12.2608247,9.81134021 C12.2443299,10.3226804 12.0793814,10.6690722 11.7,11.0154639 C11.3140206,11.3865979 10.8345155,11.5974021 10.1292124,11.7200247 L9.88556701,11.757732 C9.3742268,11.8237113 9.19278351,11.9061856 8.97835052,12.1371134 C8.79840675,12.3320525 8.71388771,12.58152 8.66282928,13.1457651 L8.64845361,13.3247423 C8.57285223,14.3226804 8.4556701,14.7800687 8.0428026,15.67521 L7.82892616,16.1302149 L7.82892616,16.1302149 L7.67156289,16.4819876 C7.39550515,17.1291134 7.34536082,17.4616495 7.41134021,17.9103093 C7.50324006,18.522975 7.83692405,18.9934147 8.59728592,19.5461423 L8.78041237,19.6752577 C9.45670103,20.1371134 9.77010309,20.4340206 9.93505155,20.7969072 C10.0092784,20.9701031 10.0371134,21.0597938 10.0463918,21.253866 L10.0505155,21.4896907 L10.0505155,21.4896907 C10.0505155,22.0835052 9.95154639,22.314433 9.5556701,22.743299 C8.91237113,23.4360825 7.74123711,23.9969072 6.32268041,24.3268041 L5.99469051,24.397078 L5.99469051,24.397078 L5.85636505,24.4205027 C5.72686888,24.4368999 5.7011168,24.4150369 5.69670216,24.3549137 L5.69587629,24.3268041 C5.69587629,24.2368322 5.62717049,24.0634319 5.50314313,23.8280178 L5.36117097,23.5727257 L5.36117097,23.5727257 L5.18529204,23.28085 L5.18529204,23.28085 L5.08556701,23.1226804 C4.64020619,22.4463918 4.45876289,22.1 4.29381443,21.5721649 C4.11237113,20.9783505 4.04639175,20.5824742 4.07938144,19.9556701 C4.10824742,19.4360825 4.16237113,19.1690722 4.33015464,18.8010309 L4.4755799,18.5019652 L4.4755799,18.5019652 L4.54381443,18.3765464 L4.54381443,18.3765464 L4.66754994,18.1797801 L4.66754994,18.1797801 L4.84130155,17.9384343 L4.84130155,17.9384343 L4.99845361,17.7337629 L4.99845361,17.7337629 L5.65259429,16.912654 C6.69751442,15.5856897 7.11957487,14.7185065 7.2966133,13.6012275 L7.32886598,13.3742268 C7.46671576,12.2867452 7.64723333,11.7254997 8.02889904,11.2546692 L8.12061856,11.1474227 C8.38453608,10.8505155 8.45051546,10.7350515 8.45051546,10.5206186 L8.4472254,10.5036242 L8.4472254,10.5036242 L8.39787451,10.3806669 L8.39787451,10.3806669 L8.28930253,10.1497486 L8.28930253,10.1497486 L7.89449535,9.36402889 L7.89449535,9.36402889 L6.7829739,7.22427866 L6.7829739,7.22427866 L6.5807349,6.82014852 L6.5807349,6.82014852 L6.49659491,6.63919864 L6.49659491,6.63919864 L6.47266314,6.57673098 C6.46897409,6.56366383 6.46957324,6.5583521 6.4744606,6.56079578 L7.5,8 L7.5,8 L8.18598109,9.00404089 L8.18598109,9.00404089 L8.83690493,9.9383271 L8.83690493,9.9383271 L9.04676871,10.2252963 L9.04676871,10.2252963 L9.12680412,10.3226804 L9.12680412,10.3226804 C9.34123711,10.5371134 9.65463918,10.6690722 9.9185567,10.6690722 C10.1494845,10.6690722 10.6278351,10.5371134 10.8587629,10.4051546 C11.2367698,10.1934708 11.3514318,9.91248568 11.1773387,9.61302024 L11.1061941,9.50927631 L11.1061941,9.50927631 L11.019134,9.40469837 L11.019134,9.40469837 L10.3468584,8.69119452 L10.3468584,8.69119452 L9.91397009,8.21177402 L9.91397009,8.21177402 L9.32086883,7.53511322 L9.32086883,7.53511322 L8.68147392,6.78902816 L8.68147392,6.78902816 L7.33589016,5.18412898 L7.33589016,5.18412898 L6.71609592,4.43402062 L6.71609592,4.43402062 L6.17315215,3.7380361 L6.17315215,3.7380361 L6.13510916,3.68250121 C6.13244033,3.67765039 6.13171354,3.67512946 6.13308811,3.67512946 Z M5.20103093,19.9061856 C5.20103093,19.9721649 5.23402062,20.0381443 5.33298969,20.071134 C5.46023564,20.1418262 5.4905323,20.2125184 5.42387965,20.3455352 L5.38247423,20.4175258 C5.26701031,20.5989691 5.26701031,20.7639175 5.41546392,20.8793814 C5.64639175,21.0608247 5.95979381,20.9618557 6.12474227,20.6649485 C6.30618557,20.3515464 6.20721649,19.9556701 5.91030928,19.757732 C5.62989691,19.5762887 5.20103093,19.6587629 5.20103093,19.9061856 Z M20.3869034,15.4335624 L20.2773196,15.1061856 L20.4257732,15.2876289 C20.6402062,15.5350515 20.8051546,15.8319588 20.9536082,16.2443299 C21.0415808,16.4831124 21.0625266,16.5974168 21.0675137,16.8644691 L21.0683707,17.3196852 L21.0683707,17.3196852 L21.0611302,17.5565865 C21.0529846,17.6909889 21.0372364,17.7862925 21.0080933,17.8902847 L20.9536082,18.0587629 L20.9536082,18.0587629 C20.7886598,18.5041237 20.5907216,18.8175258 20.2608247,19.1639175 C19.6670103,19.7742268 18.8917526,20.1041237 17.7865979,20.2525773 L16.6997935,20.3400068 L16.6997935,20.3400068 L16.5329897,20.3515464 C15.4083411,20.4115276 14.6244952,20.5260373 13.9335954,20.7446467 L13.6153814,20.8498227 C13.5639175,20.864866 13.5243299,20.8727835 13.514433,20.8628866 C13.5061856,20.8546392 13.5319588,20.8298969 13.581701,20.7943299 L13.7101661,20.7104429 L13.7101661,20.7104429 L13.8846793,20.6077701 L13.8846793,20.6077701 L14.1936999,20.440588 L14.1936999,20.440588 L14.4051546,20.3350515 L14.4051546,20.3350515 C14.5975945,20.2415808 14.7918671,20.1627721 15.0136312,20.0906835 L15.294586,20.0068945 L15.294586,20.0068945 L15.6117856,19.9265072 L15.6117856,19.9265072 L15.9750827,19.8464718 L15.9750827,19.8464718 L16.3943304,19.7637385 L16.3943304,19.7637385 L16.8793814,19.6752577 L16.8793814,19.6752577 L17.3569588,19.5963918 L17.3569588,19.5963918 L17.7927835,19.514433 L17.7927835,19.514433 L18.0364643,19.4626575 L18.0364643,19.4626575 L18.2260787,19.4163803 C18.2523864,19.4092784 18.2758496,19.40252 18.2961722,19.3961627 L18.3474227,19.3783505 C19.9150928,18.8874639 20.7226804,17.6973014 20.5512818,16.231077 L20.5247423,16.0463918 C20.4972509,15.8402062 20.4353952,15.5882016 20.3869034,15.4335624 L20.3869034,15.4335624 Z M18.4298969,10.6030928 L18.4460863,10.6109584 L18.4460863,10.6109584 L18.7103093,10.8175258 C19.0102156,11.0574508 19.327162,11.2360314 19.7773312,11.3873477 L20.064349,11.4751385 C20.2167807,11.5176706 20.3832937,11.5583624 20.567025,11.5981341 L20.9583748,11.6767232 L20.9583748,11.6767232 L21.4012168,11.7544943 L21.4012168,11.7544943 L21.9011277,11.8330834 L21.9011277,11.8330834 L22.4648625,11.9176021 L22.4648625,11.9176021 L22.9884021,12.0020619 L22.9884021,12.0020619 L23.4452749,12.0837724 C23.9442153,12.1789233 24.3323024,12.275945 24.6979381,12.4010309 C26.6938144,13.0608247 27.9309278,14.4134021 28.2278351,16.2443299 C28.3103093,16.7721649 28.2608247,17.7783505 28.128866,18.3061856 C28.1111023,18.3696273 28.0882633,18.4412676 28.0620307,18.5171424 L27.974834,18.753506 L27.974834,18.753506 L27.8773665,18.9914912 L27.8773665,18.9914912 L27.7797188,19.2073132 C27.7010736,19.3713231 27.6327518,19.4874703 27.6010309,19.4938144 C27.5845361,19.4938144 27.5515464,19.4113402 27.5515464,19.2793814 C27.5185567,18.5865979 27.1721649,17.9268041 26.5948454,17.4154639 C26.531865,17.3614808 26.4672489,17.3087245 26.4001789,17.2567614 L26.1907898,17.1028178 C26.1543921,17.0774125 26.1171765,17.0520971 26.0790406,17.0268173 L25.8383659,16.8751323 C25.7961404,16.8497781 25.7527903,16.8243511 25.7082133,16.7987971 L25.4252109,16.6435151 C25.3753174,16.6172361 25.3239925,16.5907216 25.271134,16.5639175 L24.9347619,16.3991828 L24.9347619,16.3991828 L24.5566755,16.2248933 L24.5566755,16.2248933 L23.9005964,15.9398507 L23.9005964,15.9398507 L23.1230553,15.6186706 C23.0293005,15.5806509 22.9329897,15.5417994 22.8340206,15.5020619 C19.5680412,14.1824742 18.4134021,13.0443299 18.4134021,11.114433 L18.4159794,10.9162371 L18.4159794,10.9162371 L18.4298969,10.6030928 L18.4298969,10.6030928 Z M12.8051546,11.9886598 C13.0690722,11.9061856 13.5804124,11.9556701 13.8278351,12.0876289 C14.3061856,12.3350515 14.6525773,12.8793814 14.5701031,13.2752577 C14.4876289,13.7536082 13.7123711,14.1494845 12.8051546,14.1494845 C12.343299,14.1494845 12.1783505,14.0835052 11.9969072,13.8525773 C11.8814433,13.7041237 11.8484536,13.2257732 11.914433,12.9618557 C12.0298969,12.5329897 12.4092784,12.1041237 12.8051546,11.9886598 Z M12.5742268,12.6319588 C12.5742268,12.8463918 12.9206186,13.0773196 13.2505155,13.0773196 C13.4649485,13.0773196 13.7618557,12.9453608 13.8608247,12.8134021 C13.9927835,12.6154639 13.943299,12.4010309 13.6958763,12.2525773 C13.2505155,11.9721649 12.5742268,12.2030928 12.5742268,12.6319588 Z M12.7391753,3.82371134 C13.9268041,4.10412371 14.9989691,4.82989691 16.1371134,6.1 L16.4340206,6.44639175 L16.8628866,6.38041237 C18.6938144,6.08350515 20.5742268,6.31443299 22.1412371,7.04020619 L22.2531214,7.09352806 L22.2531214,7.09352806 L22.496134,7.21804124 L22.496134,7.21804124 L22.7453322,7.35492554 L22.7453322,7.35492554 L22.9773482,7.49043528 L22.9773482,7.49043528 L23.1688144,7.61082474 C23.2505155,7.66494845 23.3082474,7.70824742 23.328866,7.73298969 C23.3382916,7.74241532 23.3490637,7.76665264 23.360413,7.80146975 L23.3954224,7.93342851 L23.3954224,7.93342851 L23.4292777,8.1034745 C23.4345676,8.13357879 23.4396171,8.16421208 23.4443299,8.19484536 C23.5482474,8.89257732 23.5185567,9.42997938 23.3312082,9.85515052 L23.2628866,9.99278351 C23.1309278,10.2402062 23.1309278,10.3061856 23.2134021,10.5206186 C23.2793814,10.685567 23.4773196,10.8010309 23.6587629,10.8010309 C24.0282474,10.8010309 24.4121008,10.2550149 24.6225701,9.47143398 L24.7474227,8.95360825 L24.8958763,9.1185567 C25.677025,9.9916053 26.3017252,11.177551 26.4662228,12.0820925 L26.528866,12.5329897 L26.3804124,12.3185567 C26.1329897,11.9391753 25.9020619,11.6917526 25.5886598,11.4773196 C25.2257732,11.2318375 24.8490743,11.0968537 24.2038482,11.0098067 L23.8237449,10.9667046 L23.8237449,10.9667046 L23.3811942,10.9308544 L23.3811942,10.9308544 L22.8670103,10.9 C21.4484536,10.8175258 20.6402062,10.7020619 19.8484536,10.4381443 L19.5357008,10.3279978 C18.7814773,10.042666 18.2196496,9.66897465 17.5117437,8.90051543 L17.2199881,8.57135116 C17.0694126,8.39551558 16.9111888,8.20225511 16.7426088,7.98911848 L16.3908384,7.53561739 L16.3908384,7.53561739 L16.0311187,7.06131157 L16.0311187,7.06131157 L15.7164948,6.65747423 C15.6670103,6.595189 15.6189003,6.53528064 15.5720122,6.47754868 L15.3041237,6.1556701 L15.3041237,6.1556701 L15.0582283,5.87640321 C15.0186712,5.83287514 14.9797251,5.79072165 14.9412371,5.74974227 L14.7145857,5.51635166 C14.6773196,5.4792669 14.6402062,5.44295533 14.6030928,5.40721649 C13.6298969,4.46701031 12.656701,3.97216495 11.3865979,3.7742268 L11.2171629,3.74823093 L11.2171629,3.74823093 L11.1197773,3.72856907 C11.0772866,3.71722062 11.0780784,3.70903918 11.1126515,3.7019134 L11.1886598,3.69175258 L11.1886598,3.69175258 C11.5020619,3.64226804 12.2278351,3.70824742 12.7391753,3.82371134 Z M24.1206186,4.17010309 C24.128866,4.17010309 24.1247423,4.19896907 24.1123711,4.2443299 L24.0778541,4.35337915 C24.0706758,4.37399771 24.0628866,4.39553265 24.0546392,4.41752577 C23.9226804,4.78041237 23.9061856,5.29175258 23.9886598,5.86907216 L24.0332423,6.13487621 C24.1080678,6.53138786 24.2014653,6.72214158 24.5529155,7.10790103 L25.1934397,7.78197644 L25.1934397,7.78197644 L25.6613593,8.29686903 L25.6613593,8.29686903 L25.9020619,8.5742268 L25.9020619,8.5742268 L26.1824742,8.9371134 L25.8067965,8.58502291 L25.8067965,8.58502291 L25.5752577,8.38324742 L25.5752577,8.38324742 L25.1804124,8.06082474 L25.1804124,8.06082474 L24.9282551,7.86678121 L24.9282551,7.86678121 L24.7191676,7.71672394 C24.689538,7.69667812 24.6629248,7.67943872 24.6399389,7.66549255 L24.5824742,7.63402062 C24.4862543,7.5790378 24.4587629,7.569874 24.4045437,7.61607484 L24.3680412,7.65051546 C24.3416495,7.67690722 24.3231753,7.70857732 24.3105072,7.76769485 L24.2955959,7.87972784 L24.2955959,7.87972784 L24.2878103,8.04955876 L24.2878103,8.04955876 L24.285567,8.29381443 L24.285567,8.29381443 C24.2690722,9.03608247 24.1701031,9.49793814 23.9226804,9.97628866 L23.862253,10.0821977 L23.862253,10.0821977 L23.8253224,10.1315955 C23.8128304,10.1425631 23.8093728,10.1332314 23.8152842,10.1049385 L23.8396981,10.0234681 L23.8396981,10.0234681 L23.9089633,9.84219168 L23.9089633,9.84219168 L23.9399485,9.74329897 C23.9443299,9.72646048 23.9483391,9.7091638 23.9520046,9.69098893 L23.9701031,9.56804124 L23.9701031,9.56804124 L23.9813288,9.40385643 L23.9813288,9.40385643 L23.9870561,9.17827415 L23.9870561,9.17827415 L23.9886598,8.87113402 C23.9886598,7.50441826 23.8390467,7.12514903 22.9556169,6.59341691 L22.6502021,6.41670103 L22.6502021,6.41670103 L22.2545897,6.20952577 C22.1876866,6.17587629 22.1222351,6.14354639 22.0611381,6.11385567 L21.5659794,5.88350515 L21.5659794,5.88350515 L21.4520296,5.82406572 C21.4476804,5.82113402 21.4463918,5.81958763 21.4484536,5.81958763 C21.4555228,5.81251841 21.5057648,5.8198401 21.5840852,5.83733281 L21.7736918,5.88462926 L21.7736918,5.88462926 L22.0113402,5.95154639 L22.0113402,5.95154639 L22.2701963,6.03058219 L22.2701963,6.03058219 L22.5234258,6.11423462 C22.5636711,6.12814463 22.6025638,6.14193442 22.6395449,6.15544769 L23.0848797,6.33039328 L23.0848797,6.33039328 L23.3387457,6.42205995 L23.3387457,6.42205995 L23.4444158,6.45319779 L23.4444158,6.45319779 L23.5136598,6.46623711 L23.5136598,6.46623711 L23.5588488,6.46621802 C23.565063,6.46540664 23.5707904,6.46426117 23.5762887,6.4628866 C23.6092784,6.42989691 23.634937,6.360252 23.6532646,6.19530355 L23.6691485,5.99641509 C23.6713886,5.95724831 23.673425,5.91489118 23.6752577,5.86907216 C23.7041237,5.32061856 23.7708763,4.93634021 23.9086662,4.59468428 L24.0049255,4.37819779 L24.0049255,4.37819779 L24.0649485,4.25463918 C24.0917526,4.20309278 24.1123711,4.17010309 24.1206186,4.17010309 Z M11.0237113,4.78041237 L11.056701,4.43402062 L11.2216495,4.46701031 C11.5185567,4.51649485 12.0298969,4.71443299 12.2773196,4.8628866 C12.898302,5.23547605 13.1978347,5.73956765 13.4647067,6.9252358 L13.5809278,7.45902062 L13.5809278,7.45902062 L13.6835696,7.88263531 L13.6835696,7.88263531 L13.7403995,8.09223582 C13.7484536,8.11984536 13.7556701,8.14329897 13.7618557,8.16185567 C13.8443299,8.40927835 14.157732,8.98659794 14.4216495,9.34948454 C14.6030928,9.61340206 14.4876289,9.74536082 14.0752577,9.71237113 C13.4484536,9.64639175 12.6072165,9.06907216 12.0628866,8.32680412 C11.3701031,7.37010309 10.9247423,5.88556701 11.0237113,4.78041237 Z" id="Shape" fill="#FF007A" fill-rule="nonzero"></path>
    </g>
</svg>