<svg width="32" height="32" viewBox="0 0 32 32" fill="none" xmlns="http://www.w3.org/2000/svg">
<path d="M16 32C24.8366 32 32 24.8366 32 16C32 7.16344 24.8366 0 16 0C7.16344 0 0 7.16344 0 16C0 24.8366 7.16344 32 16 32Z" fill="url(#paint0_linear)"/>
<path fill-rule="evenodd" clip-rule="evenodd" d="M22.4379 12.4707L20.5751 13.072C20.9346 12.1635 20.9738 11.1635 20.9738 11.0393V11.0197C20.9738 8.24191 18.7124 5.98047 15.9346 5.98047C13.1568 5.98047 10.8954 8.24191 10.8954 11.0197C10.8954 12.6929 11.7189 14.2484 13.1045 15.1896L14.7058 16.3661V14.5818L13.9411 14.0197L13.9215 14.0066C12.9281 13.3334 12.3333 12.2158 12.3333 11.0197C12.3333 9.03276 13.9477 7.41838 15.9346 7.41838C17.915 7.41838 19.5294 9.02622 19.5359 11.0131C19.5228 11.2877 19.4509 12.0197 19.2222 12.5818L18.6339 10.4772L17.2483 10.8628L18.4836 15.2615L22.8758 13.8432L22.4379 12.4707ZM15.3595 9.88867H16.7974V22.8887H15.3595V9.88867ZM17.4509 16.5947L18.3725 17.2745C20.0718 18.4967 20.9738 20.0522 20.9803 21.7647C20.9803 24.5424 18.7189 26.8039 15.9411 26.8039C13.1633 26.8039 10.9019 24.5424 10.9019 21.7647C10.9019 20.9673 11.0849 20.2026 11.4378 19.5032L9.75809 19.8169L9.49011 18.4052L14.1241 17.5359L14.7254 22.0457L13.3006 22.2353L12.9738 19.7908C12.6078 20.379 12.3398 21.1045 12.3398 21.7647C12.3398 23.7516 13.9542 25.366 15.9411 25.366C17.928 25.366 19.5424 23.7516 19.5424 21.7647C19.5424 20.5163 18.8692 19.3986 17.5359 18.4444L17.5293 18.4379L17.4509 18.379V16.5947Z" fill="white"/>
<defs>
<linearGradient id="paint0_linear" x1="2.14119" y1="7.99778" x2="29.8556" y2="23.9987" gradientUnits="userSpaceOnUse">
<stop stop-color="#0077FD"/>
<stop offset="1" stop-color="#095EB4"/>
</linearGradient>
</defs>
</svg>
