<svg width="32" height="32" viewBox="0 0 32 32" fill="none" xmlns="http://www.w3.org/2000/svg">
<path d="M23.201 11.3353C22.6893 11.0504 22.0313 11.0504 21.4465 11.3353L17.3525 13.6855L14.5744 15.181L10.5535 17.5312C10.0418 17.816 9.38381 17.816 8.79896 17.5312L5.65535 15.6795C5.1436 15.3947 4.77807 14.8249 4.77807 14.184V10.6231C4.77807 10.0534 5.0705 9.48368 5.65535 9.1276L8.79896 7.34718C9.31071 7.06231 9.96867 7.06231 10.5535 7.34718L13.6971 9.19881C14.2089 9.48368 14.5744 10.0534 14.5744 10.6944V13.0445L17.3525 11.4777V9.05638C17.3525 8.48665 17.0601 7.91691 16.4752 7.56083L10.6266 4.21365C10.1149 3.92878 9.45692 3.92878 8.87206 4.21365L2.87728 7.63205C2.29243 7.91691 2 8.48665 2 9.05638V15.7507C2 16.3205 2.29243 16.8902 2.87728 17.2463L8.79896 20.5935C9.31071 20.8783 9.96867 20.8783 10.5535 20.5935L14.5744 18.3145L17.3525 16.7478L21.3734 14.4688C21.8851 14.184 22.5431 14.184 23.1279 14.4688L26.2715 16.2493C26.7833 16.5341 27.1488 17.1039 27.1488 17.7448V21.3056C27.1488 21.8754 26.8564 22.4451 26.2715 22.8012L23.201 24.5816C22.6893 24.8665 22.0313 24.8665 21.4465 24.5816L18.3029 22.8012C17.7911 22.5163 17.4256 21.9466 17.4256 21.3056V19.0267L14.6475 20.5935V22.9436C14.6475 23.5134 14.9399 24.0831 15.5248 24.4392L21.4465 27.7863C21.9582 28.0712 22.6162 28.0712 23.201 27.7863L29.1227 24.4392C29.6345 24.1543 30 23.5846 30 22.9436V16.178C30 15.6083 29.7076 15.0386 29.1227 14.6825L23.201 11.3353Z" fill="#8247E5"/>
</svg>
