<svg width="32" height="32" viewBox="0 0 32 32" fill="none" xmlns="http://www.w3.org/2000/svg">
<circle opacity="0.8" cx="16" cy="16" r="16" fill="#FBFBFB"/>
<path fill-rule="evenodd" clip-rule="evenodd" d="M10.6866 17.123C8.56942 11.6819 6.91628 7.12795 7.00328 7.00966C7.11929 6.92095 10.5706 7.45323 14.66 8.1925L22.1427 9.58235L24.0858 11.5636L26 13.5744L20.6055 20.2871C17.6182 23.9835 15.037 26.9997 14.863 26.9997C14.689 27.0293 12.8328 22.564 10.6866 17.123ZM15.211 19.1042C15.472 16.9455 15.6461 15.1417 15.5881 15.0826C15.5533 15.0648 15.1226 14.7072 14.4896 14.1815L14.4894 14.1814C14.0663 13.83 13.5529 13.4036 13.0068 12.9534C12.6917 12.6901 12.404 12.4493 12.1417 12.2297L12.1416 12.2295C10.3358 10.7176 9.73173 10.2119 9.63268 10.2966C9.5829 10.3392 9.66069 10.5309 9.77758 10.819C9.8078 10.8935 9.84063 10.9744 9.87454 11.0609C10.1066 11.6227 11.2667 14.5799 12.4558 17.6257C13.6449 20.6419 14.631 23.0963 14.66 23.0668C14.689 23.0372 14.95 21.2629 15.211 19.1042ZM23.0417 14.6686C23.0707 14.7277 21.6206 16.6203 19.7644 18.8972C17.9373 21.1742 16.3711 23.0963 16.3131 23.1555C16.2551 23.2146 16.1971 22.9485 16.1971 22.564C16.2261 21.6178 16.9802 15.7627 17.1252 15.674C17.2992 15.5557 22.9547 14.5799 23.0417 14.6686ZM21.5046 13.4266L23.5058 13.0422L22.6357 12.155C21.6496 11.1496 21.5626 11.1792 19.3874 13.1309C18.6333 13.811 18.5173 14.018 18.9524 13.8997C19.0285 13.8856 19.1524 13.8614 19.3116 13.8303C19.8199 13.7311 20.6874 13.5617 21.5046 13.4266ZM19.7934 10.5582C19.9385 10.6173 19.2424 11.327 18.2563 12.1846C17.2412 13.0422 16.3421 13.7223 16.2551 13.6927C15.8781 13.6632 10.7446 9.13878 10.9766 9.05007C11.1507 8.99092 18.8364 10.3216 19.7934 10.5582Z" fill="#FA1720"/>
</svg>
