<?xml version="1.0" encoding="UTF-8"?>
<svg width="32px" height="32px" viewBox="0 0 32 32" version="1.1" xmlns="http://www.w3.org/2000/svg" xmlns:xlink="http://www.w3.org/1999/xlink">
    <!-- Generator: Sketch 55 (78076) - https://sketchapp.com -->
    <title>logo / coin / flat / xlm</title>
    <desc>Created with Sketch.</desc>
    <g id="logo-/-coin-/-flat-/-xlm" stroke="none" stroke-width="1" fill="none" fill-rule="evenodd">
        <g id="Group">
            <path d="M32,16 C32,24.8365625 24.8365625,32 16,32 C13.061875,32 10.3085625,31.2078125 7.9425625,29.8259375 C7.8295625,29.76 7.71725,29.6926875 7.60625,29.6235 C7.2209375,29.3858125 6.8460625,29.13175 6.483,28.8626875 C6.377875,28.785 6.274,28.7059375 6.1708125,28.625625 C2.415,25.6979375 0,21.131125 0,16 C0,7.1634375 7.1634375,0 16,0 C24.8365625,0 32,7.1634375 32,16 Z" id="Path" fill="#E0E0E0" opacity="0.800000012"></path>
            <g id="new" transform="translate(5.000000, 7.000000)" fill="#000000" fill-rule="nonzero">
                <path d="M18.8949061,2.43906344 L16.2458961,3.79302176 L3.45413776,10.3293723 C3.41088289,9.99840868 3.38911872,9.66497436 3.38898291,9.33117819 C3.39277326,6.62130864 4.82612514,4.11590817 7.15658157,2.74567494 C9.487038,1.37544171 12.3663788,1.34511793 14.7249958,2.66596818 L16.2412422,1.89561258 L16.4674226,1.78075956 C13.6359794,-0.280927176 9.89125546,-0.575612554 6.77400147,1.01795047 C3.65674747,2.6115135 1.69355241,5.82412878 1.69216449,9.33397948 C1.69216449,9.57177814 1.70116207,9.80864304 1.71915722,10.0445742 C1.77069168,10.7277456 1.40804413,11.3750898 0.79954307,11.6861319 L0,12.0951207 L0,14 L2.3539516,12.7973115 L2.3539516,12.7973115 L3.11626333,12.406998 L3.86740565,12.0232208 L3.86740565,12.0232208 L17.3525977,5.13017233 L18.8679134,4.35514791 L22,2.75467579 L22,0.848862731 L18.8949061,2.43906344 Z" id="Path"></path>
                <path d="M21.9962775,4 L4.63265651,12.8702358 L3.11759729,13.6475245 L0,15.233828 L0,17.1383253 L3.09619289,15.5520218 L5.74475465,14.2073964 L18.5473773,7.66622728 C18.5906563,7.99914813 18.6124163,8.33452698 18.6125212,8.67026408 C18.6092445,11.381051 17.1738614,13.8871891 14.8404312,15.2562259 C12.507001,16.6252626 9.62484829,16.6522474 7.26632826,15.32714 L7.17326565,15.3765953 L5.52978003,16.2164031 C8.36081418,18.2799328 12.1071508,18.5762815 15.2258765,16.9833993 C18.3446022,15.3905171 20.3082586,12.1778021 20.3081218,8.66839784 C20.3081218,8.42765296 20.2991258,8.18877431 20.2811337,7.95176191 C20.2298142,7.26911769 20.5918374,6.62220265 21.1996616,6.31040437 L22,5.90169794 L21.9962775,4 Z" id="Path"></path>
            </g>
        </g>
    </g>
</svg>