<?xml version="1.0" encoding="UTF-8"?>
<svg width="32px" height="32px" viewBox="0 0 32 32" version="1.1" xmlns="http://www.w3.org/2000/svg" xmlns:xlink="http://www.w3.org/1999/xlink">
    <!-- Generator: Sketch 64 (93537) - https://sketch.com -->
    <title>logo / coin / flat / ht</title>
    <desc>Created with Sketch.</desc>
    <g id="logo-/-coin-/-flat-/-ht" stroke="none" stroke-width="1" fill="none" fill-rule="evenodd">
        <path d="M32,16 C32,24.8365625 24.8365625,32 16,32 C13.061875,32 10.3085625,31.2078125 7.9425625,29.8259375 C7.8295625,29.76 7.71725,29.6926875 7.60625,29.6235 C7.2209375,29.3858125 6.8460625,29.13175 6.483,28.8626875 C6.377875,28.785 6.274,28.7059375 6.1708125,28.625625 C2.415,25.6979375 0,21.131125 0,16 C0,7.1634375 7.1634375,0 16,0 C24.8365625,0 32,7.1634375 32,16 Z" id="Path" fill="#E0E0E0" opacity="0.800000012"></path>
        <g id="huobi-token-ht-logo" transform="translate(7.500000, 3.000000)" fill-rule="nonzero">
            <path d="M11.2314607,8.1752809 C11.2314607,4.4505618 9.43595506,1.24157303 8.06067416,0.191011236 C8.06067416,0.191011236 7.96516854,0.133707865 7.96516854,0.286516854 C7.8505618,7.48764045 4.20224719,9.45505618 2.17752809,12.0719101 C-2.46404494,18.1460674 1.85280899,24.7932584 6.24606742,26.0157303 C8.71011236,26.7033708 5.67303371,24.7932584 5.29101124,20.7820225 C4.83258427,15.911236 11.2314607,12.205618 11.2314607,8.1752809" id="Path" fill="#282E5B"></path>
            <path d="M13.6382022,10.6393258 C13.6191011,10.6202247 13.5808989,10.6202247 13.5426966,10.6393258 C13.5426966,10.6393258 13.5426966,10.6393258 13.5235955,10.658427 C13.447191,11.5561798 12.4539326,13.5044944 11.2123596,15.2808989 C6.99101124,21.3168539 9.39775281,24.2202247 10.7539326,25.7865169 C11.5370787,26.7033708 10.7539326,25.7865169 12.7213483,24.8505618 C12.8741573,24.7741573 16.541573,22.8258427 16.9426966,18.4134831 C17.3438202,14.1157303 14.6123596,11.4224719 13.6382022,10.6393258" id="Path" fill="#059BDC"></path>
        </g>
    </g>
</svg>