<svg width="32" height="32" viewBox="0 0 32 32" fill="none" xmlns="http://www.w3.org/2000/svg">
<path d="M30.4 22.154C30.4 27.054 23.9 31.054 15.9 31.054C7.89999 31.054 1 27.054 1 22.154L1.00002 19.5H30.5L30.5 22.154H30.4Z" fill="#FEDC90"/>
<path fill-rule="evenodd" clip-rule="evenodd" d="M6.5 4.50001C6.1 2.70001 8.00002 0.791107 9.80002 0.791107C11.4 0.791107 13 2.40001 13 4.00001V10.0544C14 9.95441 14.7 10.0544 15.8 10.0544C16.8 10.0544 17.5 10.1544 18.5 10.2544V3.50001C18.5 1.90001 20.1 0.791107 21.7 0.791107C23.5 0.791107 25.1231 2.49111 24.8231 4.29111L23.5 11.5C27.7 13.1 30.5 16.3 30.5 19.5C30.5 24.4 23.9 28.5 15.9 28.5C7.90002 28.5 1 24.4 1 19.5C1 16.3 3.3 13.1 7.5 11.5L6.5 4.50001Z" fill="#D1884F"/>
<path d="M11.8 18.9C11.8 20.2 11.1 21.3 10.2 21.3C9.29998 21.3 8.59998 20.2 8.59998 18.9C8.59998 17.6 9.29998 16.5 10.2 16.5C11.1 16.5 11.8 17.6 11.8 18.9Z" fill="#633001"/>
<path d="M22.9 18.9C22.9 20.2 22.2 21.3 21.3 21.3C20.4 21.3 19.7 20.2 19.7 18.9C19.7 17.6 20.4 16.5 21.3 16.5C22.2 16.5 22.9 17.6 22.9 18.9Z" fill="#633001"/>
<path fill-rule="evenodd" clip-rule="evenodd" d="M9.8 0C7.2 0 5.2 2.4 5.7 5L6.8 11.1C2.9 12.8 0 15.8 0 19.5V21.8C0 24.9 2 27.5 4.8 29.2C7.7 31 11.5 32 15.8 32C20.1 32 23.9 31 26.8 29.2C29.7 27.5 31.7 24.9 31.7 21.8V19.5C31.7 15.8 28.7 12.8 24.8 11.1L25.9 5C26.3 2.4 24.3 0 21.7 0C19.4 0 17.5 1.9 17.5 4.2V9.4C16.9 9.3 16.4 9.3 15.8 9.3C15.5 9.3 15.2 9.325 14.9 9.35C14.6 9.375 14.3 9.4 14 9.4V4.2C14 1.9 12.1 0 9.8 0ZM24.6 4.7L23.3 11.9C27.6 13.5 30.4 16.3 30.3 19.6V21.9C30.3 26.8 23.8 30.8 15.8 30.8C7.8 30.8 1.3 26.8 1.3 21.9V19.6C1.3 16.4 4.1 13.6 8.3 12L7 4.8C6.6 3 8 1.3 9.8 1.3C11.4 1.3 12.7 2.6 12.7 4.2V10.7C12.9 10.7 13.125 10.675 13.35 10.65C13.575 10.625 13.8 10.6 14 10.6C14.6 10.5 15.2 10.5 15.8 10.5C16.1 10.5 16.375 10.525 16.65 10.55C16.925 10.575 17.2 10.6 17.5 10.6C17.9 10.6 18.4 10.6 18.8 10.7V4.1C18.8 2.5 20.1 1.2 21.7 1.2C23.6 1.2 24.9 2.9 24.6 4.7Z" fill="#633001"/>
</svg>
