<svg width="32" height="32" viewBox="0 0 32 32" fill="none" xmlns="http://www.w3.org/2000/svg">
<circle opacity="0.8" cx="16" cy="16" r="16" fill="white"/>
<path d="M18.6269 28C16.8779 28 15.6013 27.5875 14.7972 26.7625C14.0522 26.0641 13.6199 25.1053 13.5948 24.0958C13.5857 23.7891 13.6583 23.4854 13.8054 23.2144C13.9426 22.9803 14.1408 22.7861 14.3798 22.6516C14.9428 22.3766 15.6051 22.3766 16.1682 22.6516C16.4067 22.7856 16.604 22.98 16.7394 23.2144C16.8907 23.484 16.966 23.7882 16.9575 24.0958C16.9731 24.4631 16.8656 24.8253 16.6512 25.1271C16.4725 25.3734 16.2171 25.5564 15.9233 25.6486C16.2106 26.0068 16.6172 26.255 17.0722 26.3499C17.5812 26.4947 18.1084 26.5692 18.6384 26.5711C19.3402 26.5771 20.0276 26.3759 20.6108 25.9936C21.2158 25.5751 21.667 24.9768 21.8975 24.2874C22.1897 23.467 22.3323 22.6026 22.3188 21.7338C22.3424 20.828 22.1863 19.9263 21.8592 19.0787C21.6132 18.4008 21.1462 17.821 20.5303 17.4287C19.9578 17.074 19.2933 16.8878 18.6158 16.8925C18.0255 16.9415 17.4563 17.1307 16.9575 17.4437L15.7279 18.0474V17.4437L21.2541 10.1845H13.5948V17.7175C13.5731 18.2611 13.72 18.7984 14.016 19.2587C14.3074 19.6667 14.7955 19.8957 15.3028 19.8624C15.7636 19.8533 16.2092 19.6995 16.5741 19.4237C16.9877 19.1269 17.3476 18.7644 17.6388 18.3512C17.665 18.2787 17.7134 18.2159 17.7773 18.1713C17.8286 18.1279 17.8941 18.1039 17.9619 18.1038C18.095 18.1157 18.2209 18.1681 18.322 18.2537C18.45 18.3938 18.5196 18.5757 18.5172 18.7637C18.5024 18.89 18.4794 19.0152 18.4483 19.1387C18.1762 19.7835 17.7201 20.338 17.1346 20.7356C16.5908 21.096 15.9486 21.287 15.292 21.2837C13.6337 21.2837 12.4849 20.9637 11.8455 20.3237C11.1817 19.6092 10.8394 18.6631 10.8957 17.6987V10.1845H7V8.78493H10.9139V5.59367L10.0178 4.71563V4H12.6181L13.5948 4.49507V8.78493L23.7126 8.7548L24.7199 9.74478L18.5158 15.8493C18.8906 15.7017 19.2854 15.6082 19.6876 15.5718C20.4838 15.606 21.2606 15.8231 21.9552 16.2056C22.7596 16.58 23.4374 17.1723 23.9085 17.9124C24.3305 18.539 24.6293 19.2372 24.7893 19.9712C24.9209 20.5502 24.9915 21.1408 25 21.7339C25.0041 22.8658 24.742 23.9833 24.234 25C23.7523 25.9846 22.9416 26.7784 21.9361 27.2501C20.9069 27.7467 19.7743 28.0034 18.6269 28Z" fill="#2C7DF7"/>
</svg>
