<?xml version="1.0" encoding="UTF-8"?>
<svg width="32px" height="32px" viewBox="0 0 32 32" version="1.1" xmlns="http://www.w3.org/2000/svg" xmlns:xlink="http://www.w3.org/1999/xlink">
    <!-- Generator: Sketch 60 (88103) - https://sketch.com -->
    <title>logo / stable / flat / usdt</title>
    <desc>Created with Sketch.</desc>
    <g id="logo-/-stable-/-flat-/-usdt" stroke="none" stroke-width="1" fill="none" fill-rule="evenodd">
        <g id="Group-2">
            <ellipse id="Oval" fill="#26A17B" cx="16.04224" cy="15.9728254" rx="15.9232" ry="15.7968254"></ellipse>
            <path d="M17.73952,17.4306032 L17.73952,17.4280635 C17.62944,17.4356825 17.06112,17.4686984 15.79648,17.4686984 C14.78528,17.4686984 14.07616,17.4407619 13.82528,17.4280635 L13.82528,17.4306032 C9.93664,17.2604444 7.03616,16.5899683 7.03616,15.7848889 C7.03616,14.9823492 9.9392,14.3093333 13.82528,14.1391746 L13.82528,16.7626667 C14.07872,16.7804444 14.80832,16.823619 15.8144,16.823619 C17.02272,16.823619 17.62688,16.7728254 17.73952,16.7626667 L17.73952,14.1417143 C21.62048,14.3144127 24.51328,14.9848889 24.51328,15.7874286 C24.51328,16.5899683 21.61792,17.2604444 17.73952,17.4331429 M17.73952,13.8699683 L17.73952,11.5233016 L23.15392,11.5233016 L23.15392,7.94488889 L8.41344,7.94488889 L8.41344,11.5233016 L13.82784,11.5233016 L13.82784,13.8699683 C9.4272,14.0706032 6.11968,14.9340952 6.11968,15.9702857 C6.11968,17.0064762 9.42976,17.8699683 13.82784,18.0731429 L13.82784,25.5956825 L17.74208,25.5956825 L17.74208,18.0731429 C22.13504,17.8725079 25.43744,17.0090159 25.43744,15.9728254 C25.43744,14.9391746 22.13504,14.0731429 17.74208,13.8725079" id="Shape" fill="#FFFFFF" fill-rule="nonzero"></path>
        </g>
    </g>
</svg>