<?xml version="1.0" encoding="UTF-8"?>
<svg width="32px" height="32px" viewBox="0 0 32 32" version="1.1" xmlns="http://www.w3.org/2000/svg" xmlns:xlink="http://www.w3.org/1999/xlink">
    <!-- Generator: Sketch 55 (78076) - https://sketchapp.com -->
    <title>logo / token / flat / rep</title>
    <desc>Created with Sketch.</desc>
    <g id="logo-/-token-/-flat-/-rep" stroke="none" stroke-width="1" fill="none" fill-rule="evenodd">
        <g id="augur-2" fill-rule="nonzero">
            <circle id="Oval" fill="#5F2652" cx="16" cy="16" r="16"></circle>
            <path d="M25.0976,20.144 L16.7264,5.1296 C16.5816561,4.86146978 16.3015041,4.69433761 15.9968,4.69433761 C15.6920959,4.69433761 15.4119439,4.86146978 15.2672,5.1296 L6.8992,20.144 C6.6816,20.5312 6.8064,21.0336 7.1968,21.264 L15.5776,26.2752 C15.8474228,26.4287286 16.1781772,26.4287286 16.448,26.2752 L24.816,21.2736 C25.1872,21.0336 25.3248,20.5312 25.0976,20.144 M18.7712,14.0928 L18.5664,13.92 L18.5536,13.9072 C18.4884335,13.8539579 18.4200362,13.8047973 18.3488,13.76 L18.336,13.7472 C18.2688,13.7024 18.1984,13.6544 18.1184,13.6096 C18.1056,13.6096 18.1056,13.5968 18.096,13.5968 C18.0288,13.552 17.9488,13.5168 17.8784,13.4816 C17.8656,13.4816 17.8656,13.4688 17.856,13.4688 C17.7888,13.4336 17.7088,13.4016 17.6288,13.3664 C17.616,13.3664 17.616,13.3536 17.6064,13.3536 C17.5392,13.3312 17.4688,13.296 17.4016,13.2736 C17.2165904,13.2042829 17.0260429,13.1507583 16.832,13.1136 C16.6848,13.3984 16.4768,13.6512 16.2496,13.8656 C16.6048,13.888 16.9472,13.9808 17.2544,14.1056 C17.4361001,14.1838059 17.6115462,14.2758081 17.7792,14.3808 C17.788132,14.3817344 17.7962603,14.3863791 17.8016,14.3936 C17.8464,14.416 17.8816,14.4512 17.9264,14.4864 C17.9478166,14.4982415 17.9672511,14.5133572 17.984,14.5312 C18.0254332,14.5581666 18.06403,14.5892584 18.0992,14.624 C18.1216,14.6464 18.144,14.6592 18.1664,14.6816 C18.2016,14.7168 18.2336,14.7392 18.2688,14.7744 L18.336,14.8416 L18.4288,14.9344 L18.496,15.0016 C18.5202488,15.034538 18.5469943,15.0655628 18.576,15.0944 C18.5984,15.12 18.6208,15.152 18.6432,15.1744 L18.7104,15.2768 C18.7328,15.312 18.7552,15.3344 18.768,15.3696 L18.8352,15.472 C18.8576,15.5072 18.8704,15.5392 18.8928,15.5648 C18.9152,15.6 18.928,15.632 18.9504,15.6672 C18.9728,15.7024 18.9856,15.7344 19.008,15.7696 C19.0208,15.8048 19.0432,15.8368 19.0528,15.872 C19.0752,15.9168 19.088,15.9648 19.1104,15.9968 C19.2064796,16.2306247 19.2720846,16.4758366 19.3056,16.7264 L19.408,17.1264 C19.4528,17.2992 19.8656,18.7584 20.8224,19.2512 C21.92,19.8208 23.3696,20.5312 23.9392,20.8032 L16.4192,25.3024 L16.4192,22.2208 C16.4192,21.7312 17.3888,21.1584 17.8336,20.9664 L17.856,20.9536 C17.9488,20.9088 18.0384,20.8608 18.1312,20.8064 L18.1664,20.784 C18.3612201,20.6685454 18.5444663,20.5345935 18.7136,20.384 C18.7264,20.3712 18.7488,20.3616 18.7584,20.3392 C18.7808,20.3264 18.7936,20.304 18.816,20.2944 C18.8736,20.2496 18.9184,20.192 18.976,20.1472 L18.9984,20.1248 C19.0576005,20.0694083 19.1111933,20.0083126 19.1584,19.9424 C19.1712,19.92 19.1936,19.9072 19.2032,19.8848 C19.248,19.84 19.2832,19.7824 19.328,19.7248 C19.3408,19.712 19.3504,19.6896 19.3632,19.68 L19.5008,19.4752 C19.5008,19.4624 19.5136,19.4624 19.5136,19.4528 C19.5712,19.36 19.6288,19.2576 19.6864,19.168 C19.4592,18.8928 19.2864,18.5984 19.1488,18.3232 C19.0905134,18.4923666 19.017709,18.6561767 18.9312,18.8128 C18.896,18.88 18.8512,18.9504 18.816,19.0176 C18.8032,19.0304 18.8032,19.04 18.7936,19.04 C18.7582703,19.0954782 18.7198079,19.1488981 18.6784,19.2 C18.6656,19.2128 18.656,19.2352 18.6432,19.2448 C18.6077049,19.2987323 18.5657988,19.34816 18.5184,19.392 C18.5056,19.4048 18.5056,19.4144 18.496,19.4144 C18.2208,19.7216 17.8912,19.984 17.5136,20.1664 L17.4464,20.2016 C17.2512,20.2816 15.5744,21.0464 15.5744,22.1984 L15.5744,25.28 L8.0384,20.7936 C8.528,20.496 9.9456,19.6512 11.1104,19.2864 C11.568,19.1392 12.5376,19.7536 13.0848,20.1984 L13.12,20.2336 C13.1905265,20.3044926 13.2664917,20.3697584 13.3472,20.4288 L13.3696,20.4512 C13.5424,20.5888 13.7248,20.7264 13.9296,20.8288 L14.0672,20.896 C14.076132,20.8969344 14.0842603,20.9015791 14.0896,20.9088 C14.2144,20.976 14.3392,21.0336 14.4768,21.0912 C14.495434,21.1000475 14.5146844,21.1075338 14.5344,21.1136 C14.5472,21.1136 14.5568,21.1264 14.5792,21.1264 C14.7744,21.1936 14.9664,21.2512 15.1616,21.2992 C15.3088,21.0144 15.5264,20.7616 15.7568,20.5472 C15.4358971,20.5254041 15.1199639,20.4563948 14.8192,20.3424 C14.8064,20.3296 14.784,20.3296 14.7744,20.32 C14.7386221,20.3091497 14.7042508,20.2941122 14.672,20.2752 C14.6592,20.2624 14.6368,20.2624 14.6272,20.2528 C14.592,20.24 14.56,20.2176 14.5344,20.208 C14.3072,20.0928 14.0992,19.968 13.9072,19.808 L13.6096,19.5328 C13.3345672,19.291067 13.0366249,19.07672 12.72,18.8928 C11.9776,18.4704 11.3504,18.3328 10.8704,18.4832 C9.8784,18.8032 8.7456,19.408 8.0608,19.808 L15.584,6.2912 L15.584,12.2176 C15.584,12.4224 15.2768,12.9696 14.2368,13.44 L14.1696,13.4752 C14.0672,13.52 13.9744,13.5776 13.872,13.6352 L13.8496,13.648 C13.6527343,13.7664442 13.4654901,13.90019 13.2896,14.048 C13.1787932,14.1381371 13.0760085,14.2377098 12.9824,14.3456 L12.9696,14.3584 C12.8684496,14.456592 12.7763445,14.5636909 12.6944,14.6784 L12.6816,14.6912 C12.6368,14.7488 12.6016,14.8064 12.5568,14.864 C12.5568,14.8768 12.544,14.8768 12.544,14.8864 C12.5088,14.944 12.4768,14.9888 12.4416,15.0464 C12.4416,15.0592 12.4288,15.0592 12.4288,15.0688 L12.3264,15.2416 C12.3136,15.2544 12.3136,15.264 12.304,15.2864 C12.2688,15.344 12.2464,15.4016 12.224,15.4464 C12.2230656,15.455332 12.2184209,15.4634603 12.2112,15.4688 C12.1888,15.5264 12.1664,15.5712 12.144,15.6288 C12.1351535,15.6474345 12.1276673,15.6666847 12.1216,15.6864 L12.0544,15.8592 C12.0455535,15.8778345 12.0380673,15.8970847 12.032,15.9168 C12.0213594,15.9598182 12.006348,16.0016357 11.9872,16.0416 C11.9744,16.064 11.9744,16.0864 11.9648,16.1088 C11.952,16.1664 11.9296,16.224 11.92,16.2688 C11.9072,16.2912 11.9072,16.3264 11.8976,16.3488 C11.8848,16.384 11.8848,16.4288 11.8752,16.464 C11.8624,16.4992 11.8624,16.5312 11.8528,16.5664 C11.84,16.6112 11.84,16.6592 11.8304,16.704 C11.8304,16.7392 11.8176,16.7616 11.8176,16.7968 C11.8176,16.8416 11.8048,16.8768 11.8048,16.9216 C11.8068915,16.9636085 11.8025754,17.0056906 11.792,17.0464 L11.792,17.2192 C11.790646,17.4259252 11.805626,17.6324343 11.8368,17.8368 C12.1344,17.904 12.4416,18.032 12.7744,18.192 C12.6816,17.8944 12.6368,17.5872 12.6272,17.2672 L12.6272,17.2096 C12.6250796,17.1336416 12.6293614,17.0576396 12.64,16.9824 L12.64,16.9248 C12.64,16.8576 12.6528,16.8 12.6624,16.7296 L12.6624,16.7072 C12.6752,16.64 12.6848,16.5696 12.6976,16.4896 C12.6976,16.4672 12.7104,16.4544 12.7104,16.432 C12.7232,16.3744 12.7456,16.3168 12.7552,16.2592 C12.7552,16.2464 12.768,16.2368 12.768,16.224 L12.8352,16.0192 C12.848,16.0064 12.848,15.984 12.8576,15.9744 C12.88,15.9168 12.9024,15.8592 12.9248,15.8144 C12.9376,15.8016 12.9376,15.792 12.9472,15.7696 C12.9824,15.7024 13.0048,15.6448 13.0496,15.5872 C13.0581883,15.5762193 13.0656902,15.5644307 13.072,15.552 C13.1072,15.4944 13.1296,15.4496 13.1648,15.392 C13.1733883,15.3810193 13.1808902,15.3692307 13.1872,15.3568 C13.225613,15.296964 13.2672754,15.2392776 13.312,15.184 C13.3119111,15.1805787 13.3132311,15.1772711 13.3156511,15.1748511 C13.3180711,15.1724311 13.3213787,15.1711111 13.3248,15.1712 C13.3696,15.1136 13.4048,15.0688 13.4496,15.0112 C13.4581883,15.0002193 13.4656902,14.9884307 13.472,14.976 C13.6780036,14.7484608 13.9124674,14.5484138 14.1696,14.3808 L14.5248,14.208 C14.72,14.128 16.3872,13.3408 16.3872,12.1856 L16.3872,6.2816 L23.9808,19.9136 C23.3056,19.584 22.1088,18.9888 21.184,18.5088 C20.6464,18.2336 20.2944,17.264 20.192,16.9088 L20.0896,16.4992 C20.0896,16.2816 20.032,16.064 19.9648,15.8496 C19.7236955,15.1715733 19.3127387,14.5667066 18.7712,14.0928" id="Shape" fill="#FFFFFF"></path>
        </g>
    </g>
</svg>