<svg width="32" height="32" viewBox="0 0 32 32" fill="none" xmlns="http://www.w3.org/2000/svg">
<path d="M16 32C24.8366 32 32 24.8366 32 16C32 7.16344 24.8366 0 16 0C7.16344 0 0 7.16344 0 16C0 24.8366 7.16344 32 16 32Z" fill="#2E3148"/>
<path d="M15.9999 25.2839C21.1273 25.2839 25.2839 21.1273 25.2839 16C25.2839 10.8726 21.1273 6.71603 15.9999 6.71603C10.8726 6.71603 6.716 10.8726 6.716 16C6.716 21.1273 10.8726 25.2839 15.9999 25.2839Z" fill="#1B1E36"/>
<path fill-rule="evenodd" clip-rule="evenodd" d="M13.1166 10.9675C8.36926 8.74199 4.59253 7.86946 3.9269 9.02053C3.26124 10.1717 5.89617 13.009 10.1888 16.02C5.88083 19.0144 3.23518 21.8432 3.89606 22.9953C4.55774 24.1489 8.34529 23.2861 13.1144 21.0725C13.5665 26.3098 14.7029 30.0249 16.0329 30.0249C17.3609 30.0249 18.4958 26.321 18.9494 21.096C23.6985 23.3232 27.4729 24.1967 28.1387 23.0451C28.8051 21.8958 26.1691 19.0569 21.8771 16.0448C26.1847 13.0506 28.8301 10.222 28.1692 9.06996C27.5071 7.91597 23.72 8.77888 18.9513 10.9925C18.4991 5.75575 17.3628 2.04124 16.0329 2.04124C14.7051 2.04124 13.5703 5.74392 13.1166 10.9675ZM13.0605 11.6688C13.0001 12.4926 12.9563 13.3501 12.931 14.2333C12.1679 14.7004 11.4371 15.1708 10.745 15.6387C8.91697 14.3284 7.63798 13.255 7.63798 13.255C4.72114 10.7991 4.502 9.60139 4.502 9.60139L4.50111 9.59807C4.37311 9.29458 4.64331 9.22149 4.64331 9.22149C5.83959 8.99557 7.51997 9.51039 7.51997 9.51039C9.10048 9.8703 11.1089 10.7161 13.0605 11.6688ZM13.6555 11.9634C13.6368 12.1635 13.6185 12.368 13.6006 12.5768C13.6006 12.5768 13.5842 13.0539 13.574 13.845C13.8695 13.6691 14.1693 13.4938 14.4732 13.3196C14.7616 13.1542 15.049 12.9924 15.3349 12.8343C14.7929 12.5446 14.2288 12.251 13.6555 11.9634ZM16.0435 12.4485C15.2545 12.0208 14.4788 11.6229 13.7246 11.2574C14.3952 4.73236 15.4683 3.11788 15.8486 2.74179C15.8899 2.70094 15.9443 2.67597 16.0022 2.67129C16.0602 2.66661 16.1179 2.68251 16.1652 2.71619C16.7525 3.13232 17.245 4.8726 17.245 4.8726C17.8688 7.18814 18.2008 9.44311 18.3766 11.2636C17.6182 11.6269 16.8377 12.0228 16.0435 12.4485ZM16.0113 13.1998C15.3196 13.5926 14.4764 14.0824 13.5672 14.635C13.5635 15.4497 13.5691 16.4536 13.5977 17.5485C14.1747 17.9051 14.7663 18.251 15.3588 18.5705C15.3588 18.5705 15.5943 18.7152 16.0241 18.9554C16.6564 18.6187 17.2878 18.2617 17.8944 17.889C17.8944 17.889 18.1379 17.7576 18.5615 17.5058C18.5844 16.7862 18.5892 16.057 18.5678 15.3417C18.5678 15.3417 18.5742 15.0938 18.5685 14.6492C17.867 14.2374 16.987 13.7327 16.0113 13.1998ZM18.5501 13.8832C18.2396 13.696 17.9242 13.5094 17.6044 13.324C17.3026 13.149 17.0018 12.978 16.7027 12.8111C17.3964 12.4248 17.82 12.2008 17.82 12.2008C18.0293 12.1035 18.2342 12.0092 18.4349 11.9178C18.4971 12.6798 18.5314 13.346 18.5501 13.8832ZM19.152 14.9944C19.1576 15.3373 19.1604 15.6837 19.1604 16.0331C19.1604 16.4082 19.1571 16.7799 19.1507 17.1477C19.6108 16.8619 20.1766 16.4971 20.8124 16.0595C20.6277 15.9279 20.4379 15.7939 20.2431 15.6575C20.2431 15.6575 19.8357 15.4023 19.152 14.9944ZM21.3527 15.6816C20.6513 15.202 19.9099 14.7197 19.135 14.2405C19.1096 13.352 19.0656 12.4896 19.0047 11.6613C25.0145 8.98606 26.9541 9.11511 27.4688 9.25684C27.525 9.27251 27.5738 9.30756 27.6066 9.35578C27.6394 9.40399 27.6541 9.46226 27.648 9.52026C27.5822 10.2371 26.3147 11.5299 26.3147 11.5299C24.6239 13.2177 22.8407 14.6242 21.3527 15.6816ZM21.3217 16.4256C20.6293 16.8937 19.8983 17.3643 19.1348 17.8317C19.1089 18.7366 19.0636 19.6144 19.0009 20.4567C20.6617 21.2148 22.773 22.0541 25.0818 22.6732C25.0818 22.6732 26.8347 23.1196 27.4891 22.82C27.5421 22.7959 27.5849 22.7539 27.61 22.7014C27.6351 22.6489 27.6408 22.5892 27.6261 22.5329C27.4905 22.0169 26.6324 20.2776 21.3217 16.4256ZM18.4004 20.1771C18.4548 19.5457 18.5016 18.878 18.5341 18.1947C18.2248 18.3793 17.9107 18.563 17.5921 18.7457C17.2699 18.9304 16.9491 19.1107 16.6302 19.2863C17.1071 19.5408 17.7049 19.8469 18.4004 20.1771ZM15.4079 19.2773C15.0952 19.1032 14.7808 18.9246 14.4651 18.7417C14.1793 18.5761 13.897 18.4096 13.6187 18.2425C13.6396 18.8493 13.6679 19.4766 13.7058 20.109C14.2552 19.8525 14.8287 19.5741 15.4079 19.2773ZM12.9146 17.1172C12.9085 16.7594 12.9053 16.3979 12.9053 16.0331C12.9053 15.698 12.908 15.3657 12.9131 15.0365C12.393 15.3591 11.8588 15.6986 11.3249 16.0491C11.8271 16.3998 12.3612 16.7607 12.9146 17.1172ZM10.7669 16.4198C11.4523 16.8869 12.1756 17.3567 12.9307 17.8234C12.9561 18.7128 13.0002 19.576 13.0611 20.4051C11.0011 21.3362 9.4217 21.9094 9.4217 21.9094C5.83654 23.2013 4.68953 22.7898 4.68953 22.7898C4.36032 22.7483 4.43456 22.4777 4.43456 22.4777C4.8384 21.3294 6.12352 20.1324 6.12352 20.1324C7.227 18.9451 8.96492 17.6311 10.7669 16.4198ZM16.0239 19.6157C16.813 20.0433 17.5887 20.4412 18.3428 20.8068C18.1257 23.0463 17.839 24.6915 17.839 24.6915C17.1766 28.4444 16.2488 29.2352 16.2488 29.2352C16.0513 29.4987 15.8538 29.301 15.8538 29.301C15.0584 28.3794 14.6607 26.6673 14.6607 26.6673C14.1783 25.1149 13.903 22.945 13.7492 20.7726C14.4893 20.4169 15.2501 20.0305 16.0239 19.6157Z" fill="#6F7390"/>
<path d="M23.7037 9.67898C23.7037 10.2244 23.2762 10.6666 22.7489 10.6666C22.2216 10.6666 21.7942 10.2244 21.7942 9.67898C21.7942 9.13351 22.2216 8.69133 22.7489 8.69133C23.2762 8.69133 23.7037 9.13351 23.7037 9.67898Z" fill="#B7B9C8"/>
<path d="M17.6461 16C17.6461 16.9091 16.9091 17.6461 16 17.6461C15.0909 17.6461 14.3539 16.9091 14.3539 16C14.3539 15.0909 15.0909 14.3539 16 14.3539C16.9091 14.3539 17.6461 15.0909 17.6461 16Z" fill="#B7B9C8"/>
<path d="M7.07816 14.0247C7.60546 14.0247 8.03292 13.5825 8.03292 13.0371C8.03292 12.4916 7.60546 12.0494 7.07816 12.0494C6.55087 12.0494 6.12341 12.4916 6.12341 13.0371C6.12341 13.5825 6.55087 14.0247 7.07816 14.0247Z" fill="#B7B9C8"/>
<path d="M15.0123 25.1523C15.0123 25.6977 14.5849 26.1399 14.0576 26.1399C13.5303 26.1399 13.1028 25.6977 13.1028 25.1523C13.1028 24.6068 13.5303 24.1646 14.0576 24.1646C14.5849 24.1646 15.0123 24.6068 15.0123 25.1523Z" fill="#B7B9C8"/>
</svg>
