<svg width="56" height="56" viewBox="0 0 56 56" fill="none" xmlns="http://www.w3.org/2000/svg">
<g clip-path="url(#clip0_863_121211)">
<path d="M28 56C43.464 56 56 43.464 56 28C56 12.536 43.464 0 28 0C12.536 0 0 12.536 0 28C0 43.464 12.536 56 28 56Z" fill="black"/>
<path fill-rule="evenodd" clip-rule="evenodd" d="M35.874 37.8999H20.174C19.574 37.8999 19.074 37.7999 18.474 37.4999C17.774 37.1999 17.374 36.6999 17.174 36.2999C17.174 36.2999 17.174 36.1999 17.074 36.1999C16.774 35.6999 16.574 35.0999 16.574 34.3999C16.574 33.7999 16.674 33.1999 17.074 32.5999L26.974 15.5999C27.174 15.1999 27.574 14.9999 28.074 14.9999C28.474 14.9999 28.874 15.1999 29.174 15.5999L38.874 32.5999C39.074 32.9999 39.474 33.4999 39.474 34.2999C39.574 34.9999 39.374 35.5999 39.074 36.1999C38.774 36.7999 38.274 37.2999 37.574 37.4999C36.974 37.8999 36.274 37.8999 35.874 37.8999ZM29.274 35.4999H35.874C36.274 35.4999 36.474 35.4999 36.574 35.3999C36.774 35.2999 36.874 35.1999 36.974 34.9999C37.074 34.8999 37.074 34.6999 37.074 34.4999C37.074 34.3999 36.974 34.2999 36.774 33.8999L29.274 20.8999V35.4999ZM26.874 35.4999V20.7999L19.274 33.8999C19.174 34.0999 19.174 34.2999 19.174 34.4999C19.174 34.6999 19.174 34.8999 19.274 34.9999C19.374 35.0999 19.374 35.1999 19.474 35.1999L19.574 35.2999C19.774 35.3999 19.974 35.3999 20.274 35.3999H26.874V35.4999Z" fill="white"/>
</g>
<defs>
<clipPath id="clip0_863_121211">
<rect width="56" height="56" fill="white"/>
</clipPath>
</defs>
</svg>
