<?xml version="1.0" encoding="UTF-8"?>
<svg width="32px" height="32px" viewBox="0 0 32 32" version="1.1" xmlns="http://www.w3.org/2000/svg" xmlns:xlink="http://www.w3.org/1999/xlink">
    <!-- Generator: Sketch 64 (93537) - https://sketch.com -->
    <title>logo / stable / flat / paxg</title>
    <desc>Created with Sketch.</desc>
    <defs>
        <polygon id="path-1" points="0 0.182042718 10.5933468 0.182042718 10.5933468 24.4470281 0 24.4470281"></polygon>
    </defs>
    <g id="logo-/-stable-/-flat-/-paxg" stroke="none" stroke-width="1" fill="none" fill-rule="evenodd">
        <g id="Group-18" transform="translate(0.000000, 1.000000)">
            <g id="Group-3" transform="translate(0.000000, 2.226712)">
                <g id="Fill-1-Clipped">
                    <g>
                        <mask id="mask-2" fill="white">
                            <use xlink:href="#path-1"></use>
                        </mask>
                        <g id="path-1"></g>
                        <path d="M8.89168578,1.96830752 C9.50362742,1.27625364 10.0615174,0.685546578 10.5933468,0.19136027 C1.59085522,-0.09820202 4.21139394,6.40922782 1.27716274,13.0228305 C-2.10106397,20.6402492 1.67482828,23.5426285 7.30198876,24.4470281 C6.52210102,23.52622 5.88506396,22.4741436 5.40052973,21.337129 C1.7520449,16.7446712 3.22109091,8.37825142 8.89168578,1.96830752" id="Fill-1" fill="#EFE812" fill-rule="nonzero" mask="url(#mask-2)"></path>
                    </g>
                </g>
            </g>
            <path d="M30.5560606,12.3089405 C29.7182604,14.667908 28.1806846,17.3154725 26.007037,19.9215331 C24.3130976,21.9513648 22.4299776,23.5507138 20.4860494,24.708963 C18.2380808,26.1644961 15.4505612,27.0235309 12.3329405,27.0235309 C10.5888103,27.0235309 8.87363636,26.9260449 7.30131311,26.6741257 C8.22984289,27.7686712 9.35913578,28.6769316 10.670853,29.311073 C18.8114141,33.2471897 19.3249046,25.9357419 27.9374523,22.2254837 C32.7731425,20.1416004 32.7905163,16.0693895 30.5560606,12.3089405" id="Fill-4" fill="#EDE70A" fill-rule="nonzero"></path>
            <path d="M20.4829608,4.69972613 C21.683679,4.91882827 22.822624,5.31359822 23.8428485,5.88982716 C26.5763165,7.43608978 29.0665522,9.80277889 30.5558676,12.3084579 C32.0220179,8.17833444 31.3396161,4.9323412 28.131266,4.34356453 C24.6043973,3.69880584 21.8477643,3.4922514 19.1992346,1.64194837 C15.9358676,-0.635941639 13.0759573,0.114989898 10.5944085,2.41894052 C10.7691111,2.42376656 10.9476745,2.43245342 11.1320292,2.4430707 C14.5749248,2.64576431 17.8614568,3.31561841 20.4829608,4.69972613" id="Fill-6" fill="#EDE70A" fill-rule="nonzero"></path>
            <path d="M8.89168578,4.19501907 C3.22109091,10.604963 1.7520449,18.9713828 5.40052973,23.5638406 C3.76257239,19.7194187 3.87646689,14.9242671 6.18427836,11.0962536 C9.25846467,5.99899213 15.4222806,3.77611897 20.4828642,4.69982267 C17.8613603,3.31571492 14.5748283,2.64586083 11.1328979,2.44220202 C10.947578,2.43158473 10.7690146,2.42482828 10.5933468,2.41807183 C10.0615174,2.91225813 9.50362742,3.50296521 8.89168578,4.19501907" id="Fill-8" fill="#DEC21C" fill-rule="nonzero"></path>
            <path d="M23.8423659,5.89002018 C22.8221414,5.31282604 21.6831964,4.91902133 20.4824781,4.6999192 C23.9350258,6.5222312 26.23222,9.58386978 26.2061594,14.461064 C26.1829944,18.6925342 23.9967991,22.4317486 20.4853737,24.7086734 C22.4293019,23.5504242 24.3133872,21.9520404 26.0073266,19.9212436 C28.1809742,17.3161481 29.7175848,14.6685836 30.555385,12.308651 C29.0660696,9.80297191 26.5758339,7.43531764 23.8423659,5.89002018" id="Fill-10" fill="#E5CB22" fill-rule="nonzero"></path>
            <path d="M20.4830572,4.69982267 C15.4224736,3.77708418 9.25865769,5.99802693 6.18447138,11.0952884 C3.87665993,14.9242671 3.76180022,19.7203839 5.4007228,23.5638406 C5.88525702,24.69989 6.52132884,25.7538968 7.30218182,26.6747048 C8.87353987,26.926624 10.5887138,27.0231448 12.332844,27.0231448 C15.4504647,27.0231448 18.2379843,26.16411 20.4849876,24.7085769 C23.9973782,22.4326172 26.1835735,18.6924377 26.2057732,14.4609675 C26.2327991,9.58377324 23.9346397,6.52213467 20.4830572,4.69982267 M19.9145499,22.3901481 C16.0170416,24.8938968 10.8203636,23.7771515 8.30599778,19.8941212 C5.79163187,16.0120561 7.03481929,11.0122806 10.8097464,8.32803813 C15.0315645,5.32720764 20.4454141,6.51151738 22.4192638,10.8230999 C24.3438878,15.0285096 23.8120584,19.8854344 19.9145499,22.3901481" id="Fill-12" fill="#CCA727" fill-rule="nonzero"></path>
        </g>
    </g>
</svg>