<svg width="33" height="32" viewBox="0 0 33 32" fill="none" xmlns="http://www.w3.org/2000/svg">
<g clip-path="url(#clip0_1711_8815)">
<path d="M6.0625 16.0045C6.0625 14.4923 6.95541 13.3594 8.44702 13.3594C9.94121 13.3594 10.8341 14.4794 10.8341 15.9994C10.8341 17.5194 9.93863 18.6419 8.44702 18.6419C6.95541 18.6419 6.0625 17.5168 6.0625 16.0045Z" fill="url(#paint0_linear_1711_8815)"/>
<path fill-rule="evenodd" clip-rule="evenodd" d="M5.5691 4.68629C8.56968 1.68571 12.6393 0 16.8828 0C21.1263 0 25.1959 1.68571 28.1965 4.68629C31.1971 7.68687 32.8828 11.7565 32.8828 16C32.8828 20.2435 31.1971 24.3131 28.1965 27.3137C25.1959 30.3143 21.1263 32 16.8828 32C12.6393 32 8.56968 30.3143 5.5691 27.3137C2.56852 24.3131 0.882812 20.2435 0.882812 16C0.882812 11.7565 2.56852 7.68687 5.5691 4.68629ZM4.62475 16C4.62475 18.2503 6.10604 20.0026 8.44668 20.0026C10.7899 20.0026 12.2712 18.2374 12.2712 16C12.2712 13.7626 10.7873 11.9923 8.44668 11.9923C6.10604 11.9923 4.62475 13.7497 4.62475 16ZM19.7576 19.8065H21.0918L21.1099 12.1832H19.3034L17.1899 18.0103L15.0763 12.1832H13.2699V19.8065H14.5602V14.4361L16.5241 19.8065H17.7989L19.7576 14.4361V19.8065ZM27.7834 17.04C27.6544 18.1574 26.8441 18.6735 25.8118 18.6735H25.8067C24.3254 18.6735 23.4996 17.5845 23.4996 16.0155C23.4996 14.5471 24.2273 13.3368 25.7757 13.3368C26.7873 13.3368 27.6054 13.8606 27.6931 14.72H29.1409C28.9447 12.9781 27.626 12.0077 25.8196 12.0077C23.2699 12.0077 22.0828 13.969 22.0828 16.0594C22.0828 18.3045 23.4557 20.0026 25.5899 20.0026C26.8415 20.0026 27.5409 19.4245 27.8222 18.9368V19.8065H29.1409V15.7213H25.5899V17.04H27.7834Z" fill="url(#paint1_linear_1711_8815)"/>
</g>
<defs>
<linearGradient id="paint0_linear_1711_8815" x1="16.8831" y1="-0.000526681" x2="16.8831" y2="31.9995" gradientUnits="userSpaceOnUse">
<stop stop-color="#DADADA"/>
<stop offset="1" stop-color="#C2D1D9"/>
</linearGradient>
<linearGradient id="paint1_linear_1711_8815" x1="16.8828" y1="0" x2="16.8828" y2="32" gradientUnits="userSpaceOnUse">
<stop stop-color="#DADADA"/>
<stop offset="1" stop-color="#C2D1D9"/>
</linearGradient>
<clipPath id="clip0_1711_8815">
<rect width="32" height="32" fill="white" transform="translate(0.882812)"/>
</clipPath>
</defs>
</svg>
