<svg width="32" height="32" viewBox="0 0 32 32" fill="none" xmlns="http://www.w3.org/2000/svg">
<circle cx="16" cy="16" r="15" fill="url(#paint0_linear_3978_3600)"/>
<path fill-rule="evenodd" clip-rule="evenodd" d="M16 30.4C23.9529 30.4 30.4 23.9529 30.4 16C30.4 8.0471 23.9529 1.6 16 1.6C8.0471 1.6 1.6 8.0471 1.6 16C1.6 23.9529 8.0471 30.4 16 30.4ZM16 32C24.8366 32 32 24.8366 32 16C32 7.16344 24.8366 0 16 0C7.16344 0 0 7.16344 0 16C0 24.8366 7.16344 32 16 32Z" fill="url(#paint1_linear_3978_3600)"/>
<path d="M12.5 21.625C12.425 23.25 11.8646 25.0729 11.5938 25.7812L14.8125 23.1562C14.5677 22.8646 14.0781 22.1313 14.0781 21.7188C14.0781 21.3062 13.974 10.9219 13.9219 5.78125C13.7552 6.85417 13.375 9.25938 13.1875 10.2969C13 11.3344 12.1302 12.8958 11.7188 13.5469C11.9531 13.8438 12.4375 14.6094 12.5 15.2969C12.5781 16.1562 12.5938 19.5938 12.5 21.625Z" fill="white"/>
<path d="M15.6875 13.5469C15.6875 12.1469 15.8958 9.64062 16 8.5625C16.099 9.71354 16.2969 12.3219 16.2969 13.5469C16.2969 14.7719 16.099 17.3385 16 18.4688C15.8958 17.4115 15.6875 14.9469 15.6875 13.5469Z" fill="white"/>
<path d="M16 23.1562L12.2812 26.1016C13.0234 25.6849 14.8063 24.8516 16 24.8516C17.1937 24.8516 19.0234 25.6849 19.7891 26.1016L16 23.1562Z" fill="white"/>
<path d="M19.5469 21.625C19.6219 23.25 20.1823 25.0729 20.4531 25.7812L17.2344 23.1562C17.4792 22.8646 17.9688 22.1313 17.9688 21.7188C17.9688 21.3062 18.0729 10.9219 18.125 5.78125C18.2917 6.85417 18.6719 9.25938 18.8594 10.2969C19.0469 11.3344 19.9167 12.8958 20.3281 13.5469C20.0938 13.8438 19.6094 14.6094 19.5469 15.2969C19.4688 16.1562 19.4531 19.5938 19.5469 21.625Z" fill="white"/>
<defs>
<linearGradient id="paint0_linear_3978_3600" x1="16" y1="1" x2="16" y2="31" gradientUnits="userSpaceOnUse">
<stop stop-color="#494EA6"/>
<stop offset="1" stop-color="#160944"/>
</linearGradient>
<linearGradient id="paint1_linear_3978_3600" x1="25.2087" y1="2.83967" x2="3.89055" y2="35.6124" gradientUnits="userSpaceOnUse">
<stop stop-color="#40FD00"/>
<stop offset="0.128989" stop-color="#4A93FF"/>
<stop offset="0.207116" stop-color="#DF09A9"/>
<stop offset="0.451912" stop-color="#C2F00B"/>
<stop offset="0.639415" stop-color="#DF08AE"/>
<stop offset="0.795668" stop-color="#3DD50A"/>
<stop offset="1" stop-color="#C1F00D"/>
</linearGradient>
</defs>
</svg>
