<svg width="33" height="32" viewBox="0 0 33 32" fill="none" xmlns="http://www.w3.org/2000/svg">
<g clip-path="url(#clip0_1711_8818)">
<path d="M25.2 21.5356C26.3566 23.0875 27.5494 24.6755 28.7421 26.2635C26.3566 29.0787 23.3928 30.8832 19.8145 31.6412C15.8387 32.4713 12.0797 31.8577 8.42909 29.8366C11.6821 27.4185 14.8628 25.0364 18.0796 22.6544C18.8025 23.3401 19.4892 24.0259 20.176 24.6755C20.935 25.3973 20.6458 25.4334 21.6217 24.8921C22.9591 24.1342 24.0795 23.0875 24.947 21.8243C24.9831 21.7521 25.0554 21.6799 25.0916 21.6078C25.0554 21.6078 25.0916 21.6078 25.2 21.5356ZM10.9953 24.7116C10.0917 25.3974 9.26041 26.0109 8.42909 26.6605C7.81464 27.1297 7.20019 27.5628 6.58574 28.032C6.33273 28.2486 6.15201 28.2486 5.86286 27.9959C3.1159 25.5417 1.38098 22.51 0.730384 18.9009C0.0797893 15.2557 0.658096 11.7909 2.39301 8.50659C2.42916 8.43441 2.50145 8.32613 2.53759 8.25395C2.53759 8.21786 2.57373 8.21786 2.64602 8.18177C5.03154 11.3217 7.4532 14.4617 9.83872 17.6016C9.76643 17.7099 9.73029 17.7821 9.658 17.8543C8.93511 18.6122 8.21223 19.3701 7.4532 20.0919C7.23634 20.3085 7.20019 20.4889 7.34477 20.7416C8.1038 22.1852 9.15198 23.3762 10.4532 24.3507C10.6339 24.459 10.7785 24.5672 10.9953 24.7116ZM24.4771 2.29887C23.3205 3.12897 22.1639 3.95908 21.0073 4.75309C19.0193 6.16065 17.0314 7.6043 15.0796 9.01187C14.8266 9.19232 14.6459 9.22842 14.429 8.97578C13.7784 8.29004 13.0917 7.67649 12.4411 6.99075C12.2604 6.81029 12.0797 6.7742 11.8266 6.88248C10.2725 7.67649 9.04355 8.79532 8.03151 10.2029C7.95922 10.2751 7.88693 10.3833 7.81464 10.4916C7.23634 9.73369 6.69417 9.04796 6.15201 8.32613C5.5737 7.56821 5.03154 6.81029 4.48938 6.08847C4.30866 5.83583 4.27251 5.65537 4.52552 5.40273C7.30862 2.33496 10.7423 0.530395 14.8628 0.0972989C18.1157 -0.263615 21.2241 0.38603 24.1157 1.93796C24.2241 2.01014 24.3325 2.04623 24.441 2.11842C24.441 2.22669 24.441 2.26278 24.4771 2.29887ZM30.3686 23.9537C29.6096 22.9792 28.9229 22.0769 28.2361 21.1747C26.6458 19.0814 25.0554 16.952 23.4289 14.8587C23.2121 14.5699 23.2121 14.3895 23.4651 14.1368C24.1518 13.4511 24.8024 12.7654 25.4892 12.0796C25.6699 11.8992 25.7422 11.7187 25.5976 11.4661C24.8024 9.95024 23.7181 8.68704 22.3085 7.67649C22.2 7.6043 22.0916 7.49603 21.947 7.42385C22.0555 7.31557 22.1639 7.24339 22.2362 7.17121C23.6097 6.12456 24.9831 5.114 26.3566 4.06735C26.5735 3.88689 26.7542 3.81471 27.0072 4.06735C30.4409 7.17121 32.2843 11.033 32.465 15.6888C32.5373 18.3956 31.9228 20.9581 30.6939 23.3762C30.5855 23.5206 30.4771 23.7011 30.3686 23.9537Z" fill="url(#paint0_linear_1711_8818)"/>
</g>
<defs>
<linearGradient id="paint0_linear_1711_8818" x1="16.4707" y1="2.59293e-08" x2="16.4707" y2="32" gradientUnits="userSpaceOnUse">
<stop stop-color="#C2D1D9"/>
<stop offset="1" stop-color="#E0E0E0"/>
</linearGradient>
<clipPath id="clip0_1711_8818">
<rect width="32" height="32" fill="white" transform="translate(0.470703)"/>
</clipPath>
</defs>
</svg>
