<svg width="32" height="32" viewBox="0 0 32 32" fill="none" xmlns="http://www.w3.org/2000/svg">
<g clip-path="url(#clip0_1711_8831)">
<path d="M10.325 6.825C12.025 5.7 13.9 5.175 15.975 5.15C18 5.15 19.875 5.7 21.625 6.825L25.225 3.225C22.4 1.075 19.35 0 15.975 0C12.6 0 9.5 1.075 6.75 3.225L10.325 6.825Z" fill="#F2F3F9"/>
<path d="M25.575 6.3498C25.45 6.2248 25.375 6.0998 25.375 5.9248C25.375 5.7498 25.45 5.6248 25.575 5.4998C25.825 5.2748 26.225 5.2748 26.5 5.4998C26.625 5.6248 26.7 5.7498 26.7 5.9248C26.7 6.0998 26.625 6.2248 26.5 6.3498C26.375 6.4498 26.2 6.5248 26.05 6.5248C25.875 6.5498 25.7 6.4998 25.575 6.3498Z" fill="#F2F3F9"/>
<path d="M23.9748 8.0749C23.8748 7.9499 23.7998 7.8249 23.7998 7.6499C23.7998 7.4749 23.8748 7.3499 23.9748 7.2249C24.1999 6.9999 24.5998 6.9999 24.8249 7.2249C24.9249 7.3499 24.9998 7.4749 24.9998 7.6499C24.9998 7.8249 24.9249 7.9499 24.8249 8.0749C24.6999 8.1749 24.5748 8.2499 24.3998 8.2499C24.2248 8.2499 24.0998 8.1749 23.9748 8.0749Z" fill="#F2F3F9"/>
<path d="M22.0498 9.2998C22.0498 9.4748 22.1248 9.6248 22.2248 9.7248C22.3249 9.8248 22.4748 9.8998 22.6498 9.8998C22.8248 9.8998 22.9499 9.8498 23.0749 9.7248C23.1749 9.5998 23.2498 9.4748 23.2498 9.2998C23.2498 9.1248 23.1749 8.9748 23.0749 8.8748C22.8498 8.6498 22.4499 8.6498 22.2248 8.8748C22.1248 8.9998 22.0498 9.1248 22.0498 9.2998Z" fill="#F2F3F9"/>
<path d="M20.5496 11.4001C20.4246 11.3001 20.3496 11.1501 20.3496 10.9751C20.3496 10.8001 20.4246 10.6751 20.5496 10.5501C20.7996 10.3251 21.1996 10.3251 21.4746 10.5501C21.5996 10.6501 21.6746 10.8001 21.6746 10.9751C21.6746 11.1501 21.5996 11.3001 21.4746 11.4001C21.3496 11.5251 21.1746 11.5751 21.0246 11.5751C20.8496 11.5751 20.6996 11.5501 20.5496 11.4001Z" fill="#F2F3F9"/>
<path d="M18.7754 12.6499C18.7754 12.8249 18.8254 12.9749 18.9504 13.0749C19.0504 13.2249 19.2254 13.2749 19.3754 13.2499C19.5504 13.2499 19.7004 13.1999 19.8004 13.0749C19.9004 12.9749 19.9754 12.8249 19.9754 12.6499C19.9754 12.4749 19.9254 12.3249 19.8004 12.2249C19.5754 11.9999 19.1754 11.9999 18.9504 12.2249C18.8504 12.3499 18.7754 12.4749 18.7754 12.6499Z" fill="#F2F3F9"/>
<path d="M17.0254 14.3252C17.0254 14.1502 17.1004 14.0252 17.2004 13.9002C17.4254 13.6752 17.8254 13.6752 18.0504 13.9002C18.1754 14.0252 18.2254 14.1502 18.2254 14.3252C18.2254 14.5002 18.1504 14.6252 18.0504 14.7502C17.9504 14.8502 17.8004 14.9252 17.6254 14.9252C17.4504 14.9252 17.3254 14.8502 17.2004 14.7502C17.0754 14.6502 17.0254 14.5002 17.0254 14.3252Z" fill="#F2F3F9"/>
<path d="M13.7246 17.6001C13.7246 17.7751 13.7996 17.9251 13.8996 18.0251C14.0246 18.1751 14.1746 18.2251 14.3246 18.2001C14.4996 18.2001 14.6496 18.1501 14.7496 18.0251C14.8496 17.9001 14.9246 17.7751 14.9246 17.6001C14.9246 17.4251 14.8746 17.3001 14.7496 17.1751C14.5246 16.9501 14.1246 16.9501 13.8996 17.1751C13.7996 17.3001 13.7246 17.4251 13.7246 17.6001Z" fill="#F2F3F9"/>
<path d="M12.1746 19.6999C12.0496 19.5999 11.9746 19.4499 11.9746 19.2749C11.9746 19.0999 12.0496 18.9749 12.1746 18.8499C12.4246 18.6249 12.8246 18.6249 13.0996 18.8499C13.2246 18.9749 13.2996 19.0999 13.2996 19.2749C13.2996 19.4499 13.2246 19.5749 13.0996 19.6999C12.9746 19.8249 12.7996 19.8749 12.6496 19.8749C12.4496 19.8999 12.2996 19.8249 12.1746 19.6999Z" fill="#F2F3F9"/>
<path d="M10.375 20.9751C10.375 21.1501 10.45 21.3001 10.55 21.4001L10.5781 21.4189C10.713 21.5093 10.8111 21.5751 10.975 21.5751C11.15 21.5751 11.275 21.5251 11.4 21.4001C11.5 21.2751 11.575 21.1501 11.575 20.9751C11.575 20.8001 11.5 20.6501 11.4 20.5501C11.175 20.3251 10.775 20.3251 10.55 20.5501C10.45 20.6501 10.375 20.8001 10.375 20.9751Z" fill="#F2F3F9"/>
<path d="M8.8752 23.0749C8.7502 22.9749 8.7002 22.8249 8.7002 22.6499C8.7002 22.4749 8.7752 22.3499 8.8752 22.2249C9.1002 21.9999 9.50019 21.9999 9.72519 22.2249C9.82519 22.3499 9.9002 22.4749 9.9002 22.6499C9.9002 22.8249 9.82519 22.9749 9.72519 23.0749C9.60019 23.1999 9.47519 23.2499 9.30019 23.2499C9.15019 23.2499 8.9752 23.1999 8.8752 23.0749Z" fill="#F2F3F9"/>
<path d="M6.9502 24.3252C6.9502 24.5002 7.0252 24.6502 7.1502 24.7502C7.2502 24.8752 7.4002 24.9252 7.5752 24.9252C7.7252 24.9252 7.9002 24.8502 8.0252 24.7502C8.1502 24.6502 8.22519 24.5002 8.22519 24.3252C8.22519 24.1502 8.1502 24.0252 8.0252 23.9002C7.8002 23.6752 7.4002 23.6752 7.1502 23.9002C7.0252 24.0252 6.9502 24.1502 6.9502 24.3252Z" fill="#F2F3F9"/>
<path d="M5.5002 26.425C5.3752 26.3 5.3252 26.175 5.3252 26C5.3252 25.825 5.4002 25.7 5.5002 25.575C5.7252 25.35 6.12519 25.35 6.35019 25.575C6.47519 25.7 6.5252 25.825 6.5252 26C6.5252 26.175 6.45019 26.3 6.35019 26.425C6.25019 26.525 6.1002 26.6 5.9252 26.6C5.8002 26.625 5.6502 26.55 5.5002 26.425Z" fill="#F2F3F9"/>
<path d="M6.5252 5.9248C6.5252 6.0998 6.45019 6.2248 6.35019 6.3498C6.25019 6.4998 6.1002 6.5498 5.9252 6.5248C5.7502 6.5248 5.6002 6.4498 5.5002 6.3498C5.4002 6.2248 5.3252 6.0998 5.3252 5.9248C5.3252 5.7498 5.3752 5.6248 5.5002 5.4998C5.7252 5.2748 6.12519 5.2748 6.35019 5.4998C6.45019 5.6248 6.5252 5.7498 6.5252 5.9248Z" fill="#F2F3F9"/>
<path d="M8.02539 8.0749C8.15039 7.9499 8.22539 7.8249 8.22539 7.6499C8.22539 7.4749 8.15039 7.3499 8.02539 7.2249C7.77539 6.9999 7.37539 6.9999 7.10039 7.2249C6.97539 7.3499 6.90039 7.4749 6.90039 7.6499C6.90039 7.8249 6.97539 7.9499 7.10039 8.0749C7.22539 8.1749 7.40039 8.2499 7.55039 8.2499C7.72539 8.2249 7.90039 8.1749 8.02539 8.0749Z" fill="#F2F3F9"/>
<path d="M9.9002 9.2998C9.9002 9.4748 9.82519 9.6248 9.72519 9.7248C9.60019 9.8248 9.45019 9.8998 9.30019 9.8998C9.12519 9.8998 9.0002 9.8498 8.8752 9.7248C8.7752 9.5998 8.7002 9.4748 8.7002 9.2998C8.7002 9.1248 8.7752 8.9748 8.8752 8.8748C9.1002 8.6498 9.50019 8.6498 9.72519 8.8748C9.82519 8.9998 9.9002 9.1248 9.9002 9.2998Z" fill="#F2F3F9"/>
<path d="M11.4 11.4001C11.5 11.3001 11.575 11.1501 11.575 10.9751C11.575 10.8001 11.5 10.6751 11.4 10.5501C11.175 10.3251 10.775 10.3251 10.55 10.5501C10.45 10.6501 10.375 10.8001 10.375 10.9751C10.375 11.1501 10.45 11.3001 10.55 11.4001C10.675 11.5251 10.8 11.5751 10.975 11.5751C11.125 11.5751 11.275 11.5501 11.4 11.4001Z" fill="#F2F3F9"/>
<path d="M13.2496 12.6499C13.2496 12.8249 13.1746 12.9749 13.0496 13.0749C12.9496 13.2249 12.7746 13.2749 12.6246 13.2499C12.4746 13.2499 12.2996 13.1999 12.1746 13.0749C12.0496 12.9749 11.9746 12.8249 11.9746 12.6499C11.9746 12.4749 12.0496 12.3249 12.1746 12.2249C12.3996 11.9999 12.8246 11.9999 13.0496 12.2249C13.1746 12.3499 13.2496 12.4749 13.2496 12.6499Z" fill="#F2F3F9"/>
<path d="M14.9246 14.3252C14.9246 14.1502 14.8496 14.0252 14.7496 13.9002C14.5246 13.6752 14.1246 13.6752 13.8996 13.9002C13.7746 14.0252 13.7246 14.1502 13.7246 14.3252C13.7246 14.5002 13.7996 14.6252 13.8996 14.7502C13.9996 14.8502 14.1496 14.9252 14.3246 14.9252C14.4996 14.9252 14.6246 14.8502 14.7496 14.7502C14.8746 14.6502 14.9246 14.5002 14.9246 14.3252Z" fill="#F2F3F9"/>
<path d="M16.6004 16.0249C16.6004 16.1999 16.5504 16.3249 16.4254 16.4499C16.3254 16.5499 16.1754 16.6249 16.0004 16.6249C15.8254 16.6249 15.6754 16.5499 15.5754 16.4499C15.4754 16.3249 15.4004 16.1999 15.4004 16.0249C15.4004 15.8499 15.4504 15.7249 15.5754 15.5999C15.8004 15.3749 16.2004 15.3749 16.4254 15.5999C16.5254 15.7249 16.6004 15.8499 16.6004 16.0249Z" fill="#F2F3F9"/>
<path d="M18.1004 18.0251C18.2254 17.9251 18.3004 17.7751 18.3004 17.6001C18.3004 17.4251 18.2254 17.3001 18.1004 17.1751C17.8504 16.9501 17.4504 16.9501 17.2254 17.1751C17.1004 17.3001 17.0254 17.4251 17.0254 17.6001C17.0254 17.7751 17.1004 17.9001 17.2254 18.0251C17.3504 18.1501 17.5254 18.2001 17.6754 18.2001C17.8004 18.2251 17.9754 18.1751 18.1004 18.0251Z" fill="#F2F3F9"/>
<path d="M19.9754 19.2749C19.9754 19.4499 19.9004 19.5999 19.8004 19.6999C19.6754 19.8249 19.5004 19.8999 19.3754 19.8749C19.2004 19.8749 19.0754 19.8249 18.9504 19.6999C18.8504 19.5749 18.7754 19.4499 18.7754 19.2749C18.7754 19.0999 18.8504 18.9749 18.9504 18.8499C19.1754 18.6249 19.5754 18.6249 19.8004 18.8499C19.9004 18.9749 19.9754 19.0999 19.9754 19.2749Z" fill="#F2F3F9"/>
<path d="M21.4752 21.4001C21.5752 21.3001 21.6502 21.1501 21.6502 20.9751C21.6502 20.8001 21.5752 20.6501 21.4752 20.5501C21.2502 20.3251 20.8502 20.3251 20.6252 20.5501C20.5252 20.6501 20.4502 20.8001 20.4502 20.9751C20.4502 21.1501 20.5252 21.2751 20.6252 21.4001C20.7502 21.5251 20.8752 21.5751 21.0501 21.5751C21.2251 21.5751 21.3502 21.5001 21.4752 21.4001Z" fill="#F2F3F9"/>
<path d="M23.2254 22.6499C23.2254 22.8249 23.1754 22.9749 23.0504 23.0749C22.9504 23.1999 22.7754 23.2499 22.6254 23.2499C22.4504 23.2499 22.3254 23.1999 22.2004 23.0749C22.1004 22.9749 22.0254 22.8249 22.0254 22.6499C22.0254 22.4749 22.1004 22.3499 22.2004 22.2249C22.4254 21.9999 22.8254 21.9999 23.0504 22.2249C23.1504 22.3499 23.2254 22.4749 23.2254 22.6499Z" fill="#F2F3F9"/>
<path d="M24.8249 24.7502C24.9499 24.6502 24.9998 24.5002 24.9998 24.3252C24.9998 24.1502 24.9249 24.0252 24.8249 23.9002C24.5998 23.6752 24.1999 23.6752 23.9748 23.9002C23.8498 24.0252 23.7998 24.1502 23.7998 24.3252C23.7998 24.5002 23.8748 24.6502 23.9748 24.7502C24.0749 24.8502 24.2248 24.9252 24.3998 24.9252C24.5748 24.9252 24.7248 24.8752 24.8249 24.7502Z" fill="#F2F3F9"/>
<path d="M26.6999 26C26.6999 26.175 26.6248 26.3 26.4998 26.425C26.3498 26.55 26.1999 26.625 26.0749 26.6C25.9249 26.6 25.7498 26.525 25.6248 26.425C25.4998 26.3 25.4248 26.175 25.4248 26C25.4248 25.825 25.4998 25.7 25.6248 25.575C25.8498 25.35 26.2498 25.35 26.4998 25.575C26.6248 25.7 26.6999 25.825 26.6999 26Z" fill="#F2F3F9"/>
<path d="M5.025 16.0002C5.025 18.0002 5.575 19.8502 6.725 21.6002L3.175 25.2502C1.05 22.4502 0 19.3752 0 16.0252C0 12.6252 1.05 9.5752 3.15 6.8252L6.725 10.4002C5.575 12.1002 5.025 13.9752 5.025 16.0002Z" fill="#F2F3F9"/>
<path d="M21.5996 25.1748C19.8996 26.3248 18.0246 26.9248 15.9996 26.9498C13.9246 26.9498 12.0246 26.3998 10.3246 25.1998L6.72461 28.7748C9.49961 30.9498 12.5996 32.0248 15.9996 31.9998C19.3746 31.9748 22.4246 30.8748 25.1746 28.7748L21.5996 25.1748Z" fill="#F2F3F9"/>
<path d="M26.825 16.0502C26.875 14.0002 26.275 12.1002 25.125 10.3502L28.725 6.7002C30.9 9.4752 31.975 12.5752 31.95 15.9752C31.95 19.3252 30.85 22.3752 28.725 25.1252L25.125 21.5502C26.225 19.8752 26.8 18.0502 26.825 16.0502Z" fill="#F2F3F9"/>
<path d="M28.8746 26.2998C30.2496 26.2998 31.3996 27.4248 31.3996 28.8248C31.3996 30.1998 30.2746 31.3498 28.8746 31.3498C27.4996 31.3498 26.3496 30.2248 26.3496 28.8248C26.3496 27.4248 27.4746 26.2998 28.8746 26.2998Z" fill="#F2F3F9"/>
<path d="M5.625 28.8248C5.625 27.4248 4.5 26.2998 3.125 26.2998C1.75 26.2998 0.625 27.4248 0.625 28.8248C0.625 30.2248 1.75 31.3498 3.125 31.3498C4.5 31.3498 5.625 30.1998 5.625 28.8248Z" fill="#F2F3F9"/>
<path d="M28.9248 0.549805C30.2998 0.549805 31.4248 1.67481 31.4248 3.07481C31.4248 4.47481 30.2998 5.59981 28.9248 5.59981C27.5498 5.59981 26.4248 4.47481 26.4248 3.07481C26.4248 1.67481 27.5498 0.549805 28.9248 0.549805Z" fill="#F2F3F9"/>
<path d="M5.59981 3.04981C5.59981 1.67481 4.44981 0.549805 3.07481 0.549805C1.67481 0.549805 0.549805 1.67481 0.549805 3.04981C0.549805 4.42481 1.69981 5.54981 3.07481 5.54981C4.47481 5.54981 5.59981 4.42481 5.59981 3.04981Z" fill="#F2F3F9"/>
</g>
<defs>
<clipPath id="clip0_1711_8831">
<rect width="32" height="32" fill="white"/>
</clipPath>
</defs>
</svg>
