<svg width="32" height="32" viewBox="0 0 32 32" fill="none" xmlns="http://www.w3.org/2000/svg">
<path fill-rule="evenodd" clip-rule="evenodd" d="M2.98739 7.34797C2.94247 7.31908 2.90159 7.2928 2.84399 7.28046C2.85586 7.23892 2.85758 7.22637 2.86474 7.21945C2.87223 7.2122 2.88567 7.21111 2.92293 7.18937L3.86411 6.66717C3.89001 6.65422 3.91252 6.64353 3.93355 6.63354C3.98153 6.61075 4.02174 6.59165 4.07663 6.55787C4.15792 6.50245 4.24371 6.46051 4.32989 6.41839C4.38533 6.39129 4.44094 6.36411 4.49561 6.33321C4.51215 6.32328 4.51968 6.32057 4.52899 6.31721C4.53678 6.3144 4.54581 6.31114 4.5624 6.30285L5.54001 5.7685C5.5817 5.74926 5.61322 5.73002 5.64621 5.70989C5.67569 5.6919 5.70635 5.67319 5.74646 5.65313L6.39011 5.30702C6.42867 5.28131 6.46724 5.2641 6.50491 5.2473C6.53841 5.23235 6.57119 5.21773 6.60263 5.19772C6.62556 5.18626 6.63767 5.1775 6.65045 5.16825C6.66474 5.15791 6.67987 5.14696 6.71193 5.13093L7.01553 4.96698C7.07076 4.94121 7.10589 4.9199 7.14259 4.89765C7.16642 4.8832 7.19091 4.86835 7.22198 4.85161L10.5859 3.03605C10.6588 2.99355 10.7195 2.96319 10.7985 2.92676L15.6015 0.327894C15.6355 0.311867 15.7093 0.270723 15.7952 0.222781C15.9696 0.125412 16.1943 0 16.2391 0C16.318 0 16.9677 0.364326 17.1074 0.449336L19.3237 1.65161C19.3363 1.65793 19.3468 1.66279 19.3568 1.66745C19.3757 1.67623 19.3931 1.68432 19.4208 1.70019C19.4603 1.72144 19.4922 1.73966 19.5241 1.75787C19.556 1.77609 19.5878 1.79431 19.6273 1.81556L21.3153 2.72638C21.3882 2.77495 21.4368 2.79924 21.5218 2.84175L25.7176 5.10664C25.9286 5.24089 26.1509 5.35242 26.3756 5.46515C26.4355 5.49519 26.4955 5.52531 26.5556 5.55598L27.3875 6.01138C27.6202 6.12271 27.853 6.25277 28.0857 6.38283C28.272 6.48688 28.4582 6.59093 28.6444 6.68539L29.4763 7.1408C29.4863 7.14667 29.4964 7.1523 29.5063 7.15787C29.5683 7.19261 29.6253 7.22456 29.6463 7.2926C29.5573 7.31379 29.2612 7.49179 29.0409 7.6242C28.9456 7.68149 28.8645 7.73024 28.8205 7.75408L28.0007 8.22163C27.876 8.28996 27.7859 8.35012 27.7147 8.39765C27.5329 8.51907 27.4745 8.55805 27.2782 8.44023C27.2199 8.40622 27.1926 8.39164 27.1437 8.3654C27.1314 8.35885 27.1178 8.35157 27.1021 8.34307L24.8068 7.09829C24.6004 6.99507 24.3985 6.88121 24.1966 6.76736C23.9947 6.65351 23.7928 6.53966 23.5863 6.43643C23.222 6.25427 22.1897 5.71385 21.8497 5.50133L17.9878 3.4186C17.9278 3.39288 17.9011 3.37624 17.8649 3.35373C17.8499 3.34434 17.8332 3.33394 17.8117 3.32144C17.7668 3.29449 17.7319 3.2775 17.6921 3.25819C17.6782 3.25141 17.6636 3.24433 17.6478 3.23643C17.5625 3.19274 17.3803 3.09061 17.1743 2.9752C16.7793 2.75377 16.297 2.48349 16.2451 2.48349L14.8243 3.2425C14.801 3.25646 14.784 3.26775 14.7684 3.27807C14.7433 3.29468 14.7221 3.30879 14.6846 3.32751L11.1931 5.20987C11.1689 5.22201 11.1446 5.23378 11.1203 5.24554C11.0474 5.28083 10.9745 5.31613 10.9017 5.36167C10.8588 5.39028 10.8308 5.40391 10.7914 5.42314C10.7806 5.4284 10.769 5.43408 10.756 5.44061C10.7184 5.45937 10.7041 5.46886 10.6843 5.48197C10.672 5.49007 10.6577 5.49956 10.6345 5.51347L7.83527 7.02543C7.79627 7.04736 7.75922 7.06539 7.72296 7.08303C7.66888 7.10934 7.61654 7.13481 7.56202 7.17116C7.52665 7.19277 7.49446 7.20803 7.46483 7.22207C7.4029 7.25142 7.35217 7.27546 7.30699 7.34118C7.36978 7.35463 7.38951 7.36808 7.41999 7.38888C7.43078 7.39624 7.44292 7.40452 7.4588 7.41404L10.677 9.27211C10.6976 9.28354 10.7156 9.29239 10.7329 9.30092C10.7617 9.31505 10.7887 9.32833 10.8227 9.35104C10.847 9.36623 10.8698 9.37989 10.8926 9.39355C10.9153 9.40721 10.9381 9.42087 10.9624 9.43605L13.4763 10.8812C13.5142 10.9029 13.5545 10.927 13.5962 10.9519C13.648 10.9828 13.7018 11.0149 13.7556 11.0452C13.9635 11.1535 14.163 11.276 14.3622 11.3984C14.5759 11.5296 14.7893 11.6607 15.0125 11.7738L16.2512 12.4903C16.3848 12.4175 16.5002 12.3507 16.6277 12.2717C16.6884 12.2292 16.743 12.1928 16.8098 12.1564C17.1812 11.9541 17.5449 11.7391 17.9085 11.5243C18.3417 11.2683 18.7748 11.0124 19.2205 10.778L21.2789 11.962C21.2892 11.9682 21.2981 11.9732 21.3059 11.9775C21.3439 11.9987 21.3549 12.0048 21.37 12.0653C21.2799 12.0878 21.1932 12.1437 21.1123 12.1958C21.0841 12.214 21.0566 12.2317 21.03 12.2474L20.3863 12.6178C20.3745 12.6243 20.3636 12.6302 20.3534 12.6357C20.3061 12.6613 20.2734 12.6789 20.2284 12.7089C20.2066 12.7211 20.1867 12.7332 20.1667 12.7454C20.1369 12.7636 20.107 12.7818 20.0706 12.8L19.1051 13.3465C19.0467 13.3843 18.9902 13.4162 18.9324 13.449C18.8881 13.4741 18.8429 13.4997 18.7954 13.5287L18.1579 13.9051C18.1001 13.9385 18.05 13.9674 17.9999 13.9963C17.9498 14.0251 17.8997 14.0539 17.8421 14.0873C17.7875 14.1207 17.7358 14.148 17.6842 14.1753C17.6326 14.2027 17.581 14.23 17.5264 14.2634L17.1985 14.4577C17.1743 14.4724 17.1401 14.4935 17.0988 14.519C16.8498 14.6731 16.3441 14.986 16.2451 14.986C16.1662 14.986 15.3829 14.5123 15.1643 14.3787C15.1279 14.3575 15.096 14.3378 15.0641 14.318C15.0322 14.2983 15.0004 14.2786 14.9639 14.2573L13.0937 13.1825C12.7737 12.9792 12.4428 12.796 12.1119 12.6129C11.84 12.4624 11.5681 12.3119 11.3024 12.1503C11.2835 12.1395 11.2743 12.1335 11.265 12.1275C11.2533 12.12 11.2417 12.1125 11.2114 12.0956L9.95443 11.367C9.91306 11.3463 9.87756 11.3256 9.84015 11.3038C9.81168 11.2872 9.7821 11.27 9.74798 11.2516L9.54153 11.1362C8.9989 10.8083 8.44748 10.4979 7.89662 10.1878C7.32561 9.86637 6.7552 9.54528 6.1958 9.20531L3.8884 7.86945C3.72942 7.78996 3.58128 7.69963 3.43314 7.6093C3.30969 7.53403 3.18624 7.45875 3.05652 7.38975C3.03107 7.37605 3.00877 7.36171 2.98739 7.34797ZM2 23.6751C2.38861 23.8816 2.89867 24.1973 3.263 24.4402C3.34206 24.4941 3.42751 24.5438 3.5143 24.5942C3.57415 24.629 3.63464 24.6641 3.69412 24.7013C3.72525 24.7205 3.75166 24.7359 3.7767 24.7504C3.81515 24.7728 3.85037 24.7933 3.8945 24.8228C3.90513 24.8298 3.91525 24.8369 3.92515 24.8439C3.94917 24.8607 3.97193 24.8767 3.99772 24.8896C4.01896 24.9017 4.03566 24.9108 4.05235 24.9199C4.06905 24.929 4.08577 24.9381 4.10702 24.9503L8.78254 27.8284C8.82023 27.849 8.85599 27.8715 8.89308 27.8948C8.92173 27.9128 8.95117 27.9314 8.98292 27.9499L13.2273 30.567C13.2469 30.5792 13.2615 30.5875 13.2748 30.595C13.2945 30.6061 13.3112 30.6156 13.3366 30.6338L15.3647 31.8785C15.3951 31.8948 15.4195 31.9124 15.4422 31.9288C15.4876 31.9616 15.5267 31.9899 15.5954 31.9939V16.1457L14.9518 15.7753C14.9053 15.7521 14.8731 15.7324 14.8333 15.7081L14.7939 15.6842L14.2899 15.3928C13.9373 15.2075 13.5965 15.0017 13.2551 14.7955C12.9028 14.5827 12.5499 14.3696 12.1829 14.1784C12.15 14.1619 12.127 14.1479 12.1044 14.1342C12.077 14.1175 12.0501 14.1012 12.0068 14.0812L11.3632 13.7108C11.2053 13.6137 10.4888 13.1825 10.3613 13.1522V15.6539L12.9966 17.178C13.0202 17.1917 13.0412 17.2042 13.0612 17.2161C13.1028 17.2408 13.1397 17.2627 13.1848 17.2873C13.2089 17.2993 13.2291 17.3121 13.2485 17.3243C13.2878 17.3492 13.3243 17.3722 13.3852 17.3844V28.1138C13.0431 27.8843 12.6843 27.6714 12.3286 27.4604C12.2045 27.3868 12.0807 27.3133 11.9583 27.2395L10.8106 26.529C10.5671 26.3646 10.3138 26.215 10.0608 26.0656C9.82801 25.9281 9.59559 25.7909 9.37154 25.6425C9.34421 25.6243 9.32296 25.6121 9.30171 25.6C9.28045 25.5878 9.2592 25.5757 9.23188 25.5575L8.21784 24.9321C8.10854 24.8713 8.0296 24.8228 7.92638 24.7499C7.7206 24.6116 7.50546 24.4827 7.29031 24.3537C7.11819 24.2506 6.94607 24.1474 6.77875 24.0395C6.72714 24.0061 6.68008 23.9787 6.63303 23.9514C6.58596 23.9241 6.5389 23.8968 6.48729 23.8634C6.08566 23.5927 5.66207 23.3409 5.24359 23.0921C5.08011 22.9949 4.91705 22.898 4.75674 22.8007C4.70816 22.7704 4.66565 22.74 4.62315 22.7097L4.17989 22.4364V9.55749C4.09488 9.50284 4.00987 9.45427 3.91271 9.39962C3.81556 9.34497 3.74269 9.30246 3.64554 9.24174L2.27932 8.46451C2.2303 8.43857 2.18677 8.41125 2.14416 8.38451C2.09703 8.35494 2.05102 8.32608 2 8.30057V23.6751ZM16.907 16.1214V22.2118L17.7146 21.7564C17.8998 21.6592 18.0774 21.5514 18.255 21.4437C18.4326 21.3359 18.6103 21.2281 18.7955 21.1309L18.8136 21.1211C18.8671 21.0919 18.8912 21.0789 18.9351 21.0459C18.9675 21.0257 18.9999 21.0108 19.0323 20.996C19.0485 20.9886 19.0647 20.9812 19.0809 20.9731V17.3844C19.1537 17.3662 19.178 17.3541 19.2327 17.3176C19.2667 17.2949 19.2937 17.2817 19.3225 17.2675C19.3398 17.259 19.3578 17.2501 19.3784 17.2387C19.4863 17.1767 19.5934 17.1104 19.7006 17.0439C19.8768 16.9347 20.0534 16.8253 20.2346 16.7347C20.5369 16.5859 20.8286 16.4085 21.1177 16.2327C21.206 16.179 21.2941 16.1254 21.3822 16.0729C21.4475 16.0361 21.5047 16.0021 21.5665 15.9653C21.5965 15.9474 21.6277 15.9288 21.6615 15.9089L22.2323 15.5871C22.2626 15.5689 22.2824 15.5567 22.3021 15.5446C22.3218 15.5325 22.3416 15.5203 22.3719 15.5021C22.4991 15.4369 22.6216 15.3607 22.7449 15.2839C22.863 15.2104 22.9819 15.1363 23.1067 15.071L23.386 14.907C23.4184 14.8868 23.4507 14.8719 23.4831 14.8571C23.4993 14.8497 23.5155 14.8423 23.5317 14.8342L25.3958 13.7533C25.5993 13.6469 25.7947 13.5292 25.9895 13.4118C26.1726 13.3015 26.3552 13.1915 26.5435 13.0915L27.1203 12.7514C27.1922 12.7087 27.2633 12.6677 27.3341 12.6268C27.4547 12.5572 27.5748 12.4879 27.6972 12.4114C27.7334 12.3901 27.7673 12.3711 27.8 12.3527C27.8607 12.3187 27.9174 12.2869 27.9765 12.2474L28.2801 12.0774V22.4668C28.2185 22.48 28.1888 22.4996 28.1494 22.5255C28.1344 22.5354 28.118 22.5462 28.0979 22.5579L27.5636 22.8858C27.5454 22.8979 27.5285 22.9094 27.5117 22.9208C27.4779 22.9438 27.4442 22.9667 27.3996 22.9951C27.3593 23.0186 27.3264 23.0403 27.2947 23.0611C27.2693 23.0779 27.2446 23.0942 27.2175 23.1104C27.1841 23.1287 27.1583 23.1453 27.1325 23.162C27.1067 23.1787 27.0809 23.1954 27.0475 23.2137L26.507 23.5355C26.2642 23.6751 26.0289 23.8239 25.7936 23.9727C25.5583 24.1215 25.323 24.2702 25.0801 24.4099L23.6592 25.2903C23.6258 25.3116 23.6 25.3268 23.5742 25.3419C23.5484 25.3571 23.5226 25.3723 23.4892 25.3936C23.1426 25.6279 22.7834 25.8408 22.4244 26.0535C22.123 26.2321 21.8216 26.4107 21.5279 26.6019C21.4565 26.6508 21.3827 26.695 21.3095 26.7389C21.2645 26.7659 21.2197 26.7927 21.1757 26.8205L19.3966 27.9135C19.342 27.9438 19.2812 27.9803 19.2266 28.0167C18.9625 28.1898 18.6922 28.3507 18.422 28.5116C18.1519 28.6725 17.8816 28.8334 17.6175 29.0065L16.8949 29.4497V32C16.9858 31.9773 17.1174 31.89 17.2237 31.8195C17.2594 31.7958 17.2925 31.7739 17.3199 31.7571C17.3803 31.7194 17.4397 31.6848 17.4988 31.6503C17.5825 31.6015 17.6657 31.5529 17.7511 31.496C17.9545 31.3594 18.167 31.2349 18.3795 31.1104C18.5921 30.986 18.8046 30.8615 19.008 30.7249C19.0411 30.7045 19.0711 30.6851 19.1 30.6664C19.14 30.6406 19.1783 30.6159 19.2205 30.5913L20.2953 29.9294C20.3317 29.9082 20.3636 29.8884 20.3955 29.8687C20.4273 29.849 20.4592 29.8292 20.4957 29.808L26.2156 26.2861C26.2945 26.2376 26.3613 26.1951 26.4281 26.1526L30.2475 23.8027C30.3203 23.7541 30.3932 23.7116 30.4661 23.6751V8.32486C30.391 8.34155 30.3589 8.36397 30.3186 8.39212C30.3002 8.40494 30.2801 8.41895 30.2535 8.43416C30.1746 8.47666 30.1199 8.50702 30.0471 8.54953L28.778 9.28425C28.5835 9.38835 28.3952 9.50357 28.2069 9.61876C27.9779 9.7589 27.7489 9.899 27.5089 10.019L24.1146 11.9742C24.0254 12.0241 23.9467 12.072 23.8674 12.1202C23.8118 12.154 23.7557 12.1881 23.6957 12.2232L23.0702 12.5875C22.627 12.8121 21.9833 13.1947 21.5765 13.4497C21.5401 13.474 21.5067 13.4907 21.4733 13.5074C21.44 13.5241 21.4065 13.5408 21.37 13.5651L19.9917 14.3666C19.956 14.3844 19.9455 14.3918 19.9306 14.4022C19.9201 14.4095 19.9075 14.4183 19.8824 14.4334L19.4513 14.6702C19.3237 14.737 19.2038 14.8114 19.0839 14.8858C18.964 14.9602 18.844 15.0345 18.7165 15.1013C18.6845 15.1174 18.6693 15.1283 18.6551 15.1386C18.6423 15.1479 18.6302 15.1567 18.6072 15.1681L18.1761 15.4049C18.0657 15.459 17.8852 15.5713 17.692 15.6914C17.3861 15.8817 17.0485 16.0917 16.907 16.1214Z" fill="#F2F3F9"/>
</svg>
