<svg width="697" height="698" viewBox="0 0 697 698" fill="none" xmlns="http://www.w3.org/2000/svg">
<mask id="mask0_27_245" style="mask-type:luminance" maskUnits="userSpaceOnUse" x="0" y="0" width="697" height="698">
<path d="M696.8 0H0V697.9H696.8V0Z" fill="white"/>
</mask>
<g mask="url(#mask0_27_245)">
<path d="M348.4 697.9C256.1 697.8 167.5 661.1 102.2 595.7C36.9 530.3 0.1 441.5 0 349C0.1 256.4 36.9 167.7 102.2 102.3C167.5 36.9 256.1 0.1 348.4 0C440.7 0.1 529.3 36.9 594.6 102.3C659.9 167.7 696.7 256.4 696.8 349C696.7 441.6 659.9 530.3 594.6 595.7C529.3 661.1 440.7 697.9 348.4 697.9ZM348.4 26.9C263.2 27 181.5 60.9 121.2 121.3C60.9 181.6 26.9 263.5 26.8 349C26.9 434.4 60.8 516.4 121.1 576.8C181.4 637.2 263.1 671.1 348.4 671.1C433.6 671.1 515.4 637.2 575.7 576.8C636 516.3 669.9 434.4 670 349C669.9 263.6 635.9 181.7 575.7 121.3C515.3 60.9 433.6 26.9 348.4 26.9Z" fill="url(#paint0_linear_27_245)"/>
<path d="M392.4 642.7C315.9 642.6 242.6 612.2 188.5 558C134.4 503.8 103.9 430.3 103.8 353.6C103.9 276.9 134.4 203.4 188.5 149.2C242.6 95 315.9 64.5 392.4 64.5C468.9 64.6 542.2 95 596.3 149.2C650.4 203.4 680.9 276.9 681 353.6C680.9 430.3 650.4 503.8 596.3 558C542.3 612.2 468.9 642.7 392.4 642.7ZM392.4 85.3C321.4 85.4 253.4 113.6 203.2 163.9C153 214.2 124.8 282.4 124.6 353.5C124.7 424.6 153 492.8 203.2 543.1C253.4 593.4 321.4 621.6 392.4 621.7C463.4 621.6 531.4 593.4 581.6 543.1C631.8 492.8 660.1 424.6 660.2 353.5C660.1 282.4 631.8 214.2 581.6 163.9C531.4 113.7 463.4 85.4 392.4 85.3Z" fill="url(#paint1_linear_27_245)"/>
<path d="M436.5 587.5C375.8 587.5 317.7 563.3 274.8 520.3C231.9 477.3 207.7 419 207.7 358.2C207.8 297.4 231.9 239.1 274.8 196.1C317.7 153.1 375.9 129 436.5 128.9C497.2 128.9 555.3 153.1 598.2 196.1C641.1 239.1 665.2 297.4 665.3 358.2C665.2 419 641.1 477.3 598.2 520.3C555.3 563.3 497.1 587.5 436.5 587.5ZM436.5 144C379.8 144 325.4 166.6 285.3 206.8C245.2 247 222.6 301.5 222.5 358.3C222.6 415.1 245.2 469.6 285.3 509.8C325.4 550 379.8 572.6 436.5 572.6C493.2 572.6 547.6 550 587.7 509.8C627.8 469.6 650.4 415.1 650.5 358.3C650.4 301.4 627.8 246.9 587.7 206.8C547.5 166.6 493.2 144 436.5 144Z" fill="url(#paint2_linear_27_245)"/>
<path d="M480.5 532.3C435.7 532.3 392.7 514.4 361 482.7C329.3 450.9 311.5 407.9 311.4 363C311.5 318.1 329.3 275 361 243.2C392.7 211.4 435.7 193.6 480.5 193.5C525.3 193.5 568.3 211.4 600 243.2C631.7 275 649.5 318 649.6 363C649.5 407.9 631.7 451 600 482.7C568.3 514.4 525.3 532.3 480.5 532.3ZM480.5 202.5C438 202.5 397.3 219.5 367.3 249.5C337.3 279.6 320.4 320.4 320.3 362.9C320.4 405.5 337.3 446.2 367.3 476.3C397.3 506.4 438 523.3 480.5 523.3C522.9 523.3 563.6 506.4 593.7 476.3C623.7 446.2 640.6 405.4 640.7 362.9C640.6 320.3 623.7 279.5 593.7 249.5C563.7 219.4 523 202.5 480.5 202.5Z" fill="url(#paint3_linear_27_245)"/>
</g>
<defs>
<linearGradient id="paint0_linear_27_245" x1="716.381" y1="597.45" x2="-51.9597" y2="78.3639" gradientUnits="userSpaceOnUse">
<stop stop-color="white"/>
<stop offset="1" stop-color="white"/>
</linearGradient>
<linearGradient id="paint1_linear_27_245" x1="697.22" y1="559.479" x2="60.6976" y2="129.514" gradientUnits="userSpaceOnUse">
<stop stop-color="white"/>
<stop offset="1" stop-color="white"/>
</linearGradient>
<linearGradient id="paint2_linear_27_245" x1="678.159" y1="521.493" x2="173.386" y2="180.677" gradientUnits="userSpaceOnUse">
<stop stop-color="white"/>
<stop offset="1" stop-color="white"/>
</linearGradient>
<linearGradient id="paint3_linear_27_245" x1="659.104" y1="483.536" x2="286.135" y2="231.61" gradientUnits="userSpaceOnUse">
<stop stop-color="white"/>
<stop offset="1" stop-color="white"/>
</linearGradient>
</defs>
</svg>
