<svg width="270" height="269" viewBox="0 0 270 269" fill="none" xmlns="http://www.w3.org/2000/svg">
<path d="M134.7 268.4V222.7C130.1 222.7 125.4 222.3 120.8 221.6L113.6 266.7C120.6 267.9 127.7 268.4 134.7 268.4ZM155.7 266.8C162.7 265.7 169.6 264.1 176.3 261.9L162.2 218.4C157.8 219.8 153.2 220.9 148.6 221.6L155.7 266.8ZM93.1 261.9L107.2 218.5C102.8 217.1 98.5 215.3 94.3 213.2L73.5 253.9C79.8 257 86.4 259.7 93.1 261.9ZM195.8 253.9C202.1 250.7 208.1 247 213.8 242.9L186.8 206C183.1 208.7 179.1 211.2 174.9 213.2L195.8 253.9ZM55.5 242.8L82.5 205.9C78.8 203.2 75.2 200.2 71.9 196.9L39.5 229.2C44.5 234.1 49.9 238.7 55.5 242.8ZM229.7 229.4L230 229.1C235 224.2 239.6 218.8 243.7 213.2L206.7 186.3C204 190 200.9 193.6 197.7 196.8L197.2 197.3L212.8 212L229.7 229.4ZM25.8 213.1L62.8 186.2C60.1 182.5 57.6 178.5 55.5 174.4L14.7 195.1C17.9 201.4 21.6 207.4 25.8 213.1ZM254.7 195.2C257.9 189 260.6 182.4 262.8 175.7L219.2 161.7C217.8 166.1 216 170.4 213.9 174.5L254.7 195.2ZM6.6 175.7L50.2 161.6C48.8 157.2 47.7 152.7 47 148.1L1.7 155.2C2.8 162.1 4.5 169 6.6 175.7ZM267.7 155.3C268.8 148.4 269.4 141.3 269.4 134.3H223.6C223.6 138.9 223.2 143.6 222.5 148.2L267.7 155.3ZM45.9 134.2C45.9 129.6 46.3 124.9 47 120.3L1.7 113.2C0.600001 120.1 0.1 127.2 0 134.2H45.9ZM222.5 120.4L267.8 113.3C266.7 106.4 265.1 99.5 262.9 92.8L219.3 106.8C220.7 111.3 221.8 115.8 222.5 120.4ZM50.2 106.8C51.6 102.4 53.4 98.1 55.5 94L14.7 73.3C11.5 79.5 8.8 86.1 6.6 92.8L50.2 106.8ZM214 94.1L254.9 73.4C251.7 67.1 248 61.1 243.8 55.4L206.7 82.3C209.4 86 211.9 90 214 94.1ZM62.8 82.2C65.5 78.5 68.6 74.9 71.9 71.6L72 71.5L39.6 39.2L39.5 39.3C34.5 44.3 29.9 49.6 25.8 55.3L62.8 82.2ZM197.7 71.8L207.5 61.9L230 39.5L229.9 39.4C224.9 34.5 219.6 29.9 214 25.8L187 62.7C190.7 65.4 194.3 68.4 197.5 71.7L197.7 71.8ZM82.6 62.5C86.3 59.8 90.3 57.4 94.5 55.3L73.7 14.6C67.4 17.8 61.4 21.5 55.7 25.6L82.6 62.5ZM175.2 55.4L196.1 14.7C189.8 11.5 183.3 8.8 176.6 6.6L162.4 50C166.7 51.5 171 53.3 175.2 55.4ZM107.4 50C111.8 48.6 116.4 47.5 121 46.8L113.9 1.7C107 2.8 100 4.4 93.3 6.6L107.4 50ZM148.7 46.8L155.9 1.7C149 0.599999 141.9 0 134.9 0V45.7C139.5 45.7 144.2 46.1 148.7 46.8Z" fill="white"/>
<path d="M134.7 224.8V178.9C130.8 178.9 127 178.4 123.2 177.4L111.2 221.7C118.9 223.7 126.8 224.8 134.7 224.8ZM158.2 221.7C165.9 219.7 173.2 216.7 180.1 212.7L156.9 173C153.6 174.9 150 176.4 146.3 177.4L158.2 221.7ZM89.4 212.7L112.6 173C109.3 171.1 106.2 168.7 103.4 166L103 165.6L88.4 180.9L70.4 198.2L70.7 198.5C76.3 204 82.6 208.8 89.4 212.7ZM198.8 198.5C204.4 192.9 209.3 186.7 213.2 179.9L173.1 156.9C171.2 160.2 168.8 163.2 166 166L198.8 198.5ZM56.2 179.8L96.3 156.9C94.4 153.6 92.9 150.1 91.9 146.4L47.2 158.2C49.2 165.7 52.3 173 56.2 179.8ZM222.3 158.3C224.3 150.7 225.4 142.9 225.4 135.1H179.1C179.1 138.9 178.6 142.8 177.6 146.5L222.3 158.3ZM90.5 135C90.5 131.2 91 127.3 92 123.6L47.2 111.8C45.2 119.4 44.1 127.2 44.1 135H90.5ZM177.5 123.7L222.3 111.9C220.3 104.3 217.2 96.9998 213.3 90.1998L173.2 113.1C175 116.5 176.5 120 177.5 123.7ZM96.4 113.1C98.3 109.9 100.6 106.8 103.4 104.1L103.5 104L86.9 87.5998L71 71.2998L70.7 71.5998C65.1 77.0998 60.3 83.3998 56.3 90.0998L96.4 113.1ZM166 104.1L182.4 87.7998L199.2 71.9998L198.8 71.5998C193.2 65.9998 186.9 61.2998 180.1 57.2998L156.9 96.9998C160.2 98.8998 163.2 101.2 166 103.9V104.1ZM112.6 96.9998C115.9 95.0998 119.5 93.5998 123.2 92.5998L111.4 48.2998C103.7 50.2998 96.4 53.2998 89.5 57.2998L112.6 96.9998ZM146.2 92.6998L158.2 48.3998C150.6 46.3998 142.7 45.2998 134.8 45.2998V91.1998C138.6 91.1998 142.5 91.6998 146.2 92.6998Z" fill="white"/>
</svg>
