<svg viewBox="0 0 200 200" xmlns="http://www.w3.org/2000/svg" xmlns:xlink="http://www.w3.org/1999/xlink"><linearGradient id="linear-gradient" gradientUnits="userSpaceOnUse" x1="100" x2="100" y1="200"><stop offset="0" stop-color="#ccc"/><stop offset="1" stop-color="#f2f2f2"/></linearGradient><linearGradient id="linear-gradient-2" gradientUnits="userSpaceOnUse" x1="64.76" x2="64.76" y1="200" y2="7.1"><stop offset="0" stop-color="#0d1d33"/><stop offset="1" stop-color="#152e51"/></linearGradient><g id="Layer_2" data-name="Layer 2"><g id="Pack2"><g id="Pendle_PENDLE_" data-name="Pendle (PENDLE)"><circle cx="100" cy="100" fill="url(#linear-gradient)" r="100"/><path d="m95.76 156.45a54.81 54.81 0 0 0 -32.83-15.79v-133.56a99.83 99.83 0 0 0 -12.2 5.9v127.66a54.84 54.84 0 0 0 -32.83 15.79l-.27.27a99.86 99.86 0 0 0 82.37 43.28 101.17 101.17 0 0 0 11.75-.68c.1-1.3.14-2.62.14-3.94a54.84 54.84 0 0 0 -16.13-38.93z" fill="url(#linear-gradient-2)"/></g></g></g></svg>