<svg width="2000" height="568" viewBox="0 0 2000 568" fill="none" xmlns="http://www.w3.org/2000/svg">
<g opacity="0.8">
<path d="M41.6667 500C22.4002 510.668 0 538 0 538V568H2000V1C2000 1 1973.9 11.858 1958.33 21C1941.04 31.1557 1933.96 40.8443 1916.67 51C1901.1 60.142 1892.97 69.332 1875 71C1858.34 72.5464 1850 59.4536 1833.33 61C1815.36 62.668 1806.64 70.9218 1791.67 81C1772.76 93.7277 1767.51 107.277 1750 121.875C1734.6 134.716 1725.62 141.719 1708.33 151.875C1692.77 161.017 1682.23 162.733 1666.67 171.875C1649.38 182.031 1642.84 192.715 1625 201.875C1609.62 209.776 1599.91 211.936 1583.33 216.875C1567.3 221.654 1557 220.173 1541.67 226.875C1523.29 234.905 1517.29 246.719 1500 256.875C1484.44 266.017 1475.36 270.898 1458.33 276.875C1442.54 282.416 1432.46 281.334 1416.67 286.875C1399.64 292.852 1392.97 305.207 1375 306.875C1358.34 308.421 1349.81 299.819 1333.33 296.875C1317.2 293.991 1308.06 291.875 1291.67 291.875C1275.28 291.875 1266.13 293.991 1250 296.875C1233.53 299.819 1208.33 306.875 1208.33 306.875L1166.67 316.875L1125 332.75C1108.73 338.95 1099.24 329.327 1083.33 332.75C1065.69 336.547 1058.32 345.797 1041.67 352.75C1025.71 359.412 1016.79 363.61 1000 367.75C984.038 371.685 974.514 370.845 958.333 373.75C941.948 376.692 933.297 381.995 916.667 382.75C900.295 383.493 891.295 376.005 875 377.75C857.804 379.592 850.606 391.884 833.333 392.75C816.62 393.588 808.401 382.75 791.667 382.75C774.933 382.75 766.708 391.81 750 392.75C733.637 393.67 724.722 387.75 708.333 387.75C691.945 387.75 683.029 393.67 666.667 392.75C649.959 391.81 641.734 382.75 625 382.75C608.266 382.75 599.865 390.155 583.333 392.75C567.21 395.281 557.986 395.757 541.667 396C525.378 396.242 515.91 390.5 500 394C481.66 398.034 476.975 415.741 458.333 418C441.721 420.013 433.401 408 416.667 408C399.933 408 390.889 412.749 375 418C358.17 423.562 351.011 437.297 333.333 436C313.336 434.533 311.717 406 291.667 406C271.616 406 267.073 425.487 250 436C234.332 445.648 226.628 456.031 208.333 458C191.696 459.791 183.329 446.454 166.667 448C148.695 449.668 141.425 460.517 125 468C108.87 475.348 99.8891 479.668 83.3333 486C67.3002 492.132 56.6841 491.685 41.6667 500Z" fill="url(#paint0_linear_101_187)" fill-opacity="0.6"/>
<path opacity="0.5" d="M0 538C0 538 22.4002 510.668 41.6667 500C56.6841 491.685 67.3002 492.132 83.3333 486C99.8891 479.668 108.87 475.348 125 468C141.425 460.517 148.695 449.668 166.667 448C183.329 446.454 191.696 459.791 208.333 458C226.628 456.031 234.332 445.648 250 436C267.073 425.487 271.616 406 291.667 406C311.717 406 313.336 434.533 333.333 436C351.011 437.297 358.17 423.562 375 418C390.889 412.749 399.933 408 416.667 408C433.401 408 441.721 420.013 458.333 418C476.975 415.741 481.66 398.034 500 394C515.91 390.5 525.378 396.242 541.667 396C557.986 395.757 567.21 395.281 583.333 392.75C599.865 390.155 608.266 382.75 625 382.75C641.734 382.75 649.959 391.81 666.667 392.75C683.029 393.67 691.945 387.75 708.333 387.75C724.722 387.75 733.637 393.67 750 392.75C766.708 391.81 774.933 382.75 791.667 382.75C808.401 382.75 816.62 393.588 833.333 392.75C850.606 391.884 857.804 379.592 875 377.75C891.295 376.005 900.295 383.493 916.667 382.75C933.297 381.995 941.948 376.692 958.333 373.75C974.514 370.845 984.038 371.685 1000 367.75C1016.79 363.61 1025.71 359.412 1041.67 352.75C1058.32 345.797 1065.69 336.547 1083.33 332.75C1099.24 329.327 1108.73 338.95 1125 332.75C1141.27 326.55 1150.39 323.075 1166.67 316.875C1182.94 312.97 1192.06 310.78 1208.33 306.875C1208.33 306.875 1233.53 299.819 1250 296.875C1266.13 293.991 1275.28 291.875 1291.67 291.875C1308.06 291.875 1317.2 293.991 1333.33 296.875C1349.81 299.82 1358.34 308.421 1375 306.875C1392.97 305.207 1399.64 292.852 1416.67 286.875C1432.46 281.334 1442.54 282.416 1458.33 276.875C1475.36 270.898 1484.44 266.017 1500 256.875C1517.29 246.719 1523.29 234.905 1541.67 226.875C1557 220.173 1567.3 221.654 1583.33 216.875C1599.91 211.936 1609.62 209.776 1625 201.875C1642.84 192.715 1649.38 182.031 1666.67 171.875C1682.23 162.733 1692.77 161.017 1708.33 151.875C1725.62 141.719 1734.6 134.716 1750 121.875C1767.51 107.277 1772.76 93.7277 1791.67 81C1806.64 70.9218 1815.36 62.668 1833.33 61C1850 59.4536 1858.34 72.5464 1875 71C1892.97 69.332 1901.1 60.142 1916.67 51C1933.96 40.8443 1941.04 31.1557 1958.33 21C1973.9 11.858 2000 1 2000 1" stroke="#6992FB"/>
</g>
<defs>
<linearGradient id="paint0_linear_101_187" x1="1608" y1="1" x2="1608" y2="568" gradientUnits="userSpaceOnUse">
<stop stop-color="#6992FB"/>
<stop offset="1" stop-color="#6992FB" stop-opacity="0"/>
</linearGradient>
</defs>
</svg>
